<?xml version="1.0" encoding="UTF-8" standalone="no"?>
<svg
   xmlns:dc="http://purl.org/dc/elements/1.1/"
   xmlns:cc="http://creativecommons.org/ns#"
   xmlns:rdf="http://www.w3.org/1999/02/22-rdf-syntax-ns#"
   xmlns:svg="http://www.w3.org/2000/svg"
   xmlns="http://www.w3.org/2000/svg"
   id="svg65"
   version="1.2"
   viewBox="0 0 550 175"
   height="175pt"
   width="550pt">
  <metadata
     id="metadata71">
    <rdf:RDF>
      <cc:Work
         rdf:about="">
        <dc:format>image/svg+xml</dc:format>
        <dc:type
           rdf:resource="http://purl.org/dc/dcmitype/StillImage" />
        <dc:title></dc:title>
      </cc:Work>
    </rdf:RDF>
  </metadata>
  <defs
     id="defs69" />
  <g
     id="surface97">
    <path
       id="path2"
       d="M 169.988281 48.96875 C 167.769531 48.96875 165.449219 49.195312 163.234375 49.195312 C 159.539062 49.195312 155.738281 49.082031 152.046875 48.96875 L 152.046875 51.859375 C 155.527344 51.859375 157.851562 52.304688 159.328125 53.636719 C 160.804688 54.96875 161.332031 57.414062 161.332031 61.300781 C 161.332031 76.523438 160.59375 91.628906 160.171875 106.847656 C 159.75 121.734375 155.105469 123.625 147.613281 123.625 L 147.613281 126.511719 C 152.257812 126.402344 157.003906 126.289062 161.648438 126.289062 C 165.976562 126.289062 170.410156 126.511719 174.734375 126.511719 L 174.734375 123.625 C 170.515625 123.625 167.875 123.289062 166.1875 121.734375 C 164.5 120.179688 163.96875 117.179688 163.96875 111.738281 C 163.96875 110.179688 164.074219 106.183594 164.074219 104.738281 L 164.921875 64.523438 L 165.132812 64.523438 C 175.15625 85.519531 185.289062 106.292969 194.257812 127.511719 L 196.371094 127.511719 C 197.214844 124.621094 199.324219 119.179688 200.484375 116.511719 L 225.390625 62.078125 L 225.605469 62.078125 L 226.339844 115.070312 C 226.339844 119.402344 225.496094 121.511719 223.597656 122.625 C 221.804688 123.625 219.164062 123.625 215.472656 123.625 L 215.472656 126.511719 C 220.644531 126.402344 225.707031 126.289062 230.878906 126.289062 C 236.683594 126.289062 242.488281 126.511719 248.292969 126.511719 L 248.292969 123.625 C 237.738281 123.625 237 121.179688 236.789062 112.847656 C 236.367188 96.074219 235.417969 77.410156 235.417969 59.855469 C 235.417969 56.191406 236.050781 54.300781 237.421875 53.191406 C 238.796875 52.082031 241.222656 51.859375 244.8125 51.859375 L 244.8125 48.96875 C 241.75 48.96875 238.585938 49.195312 235.523438 49.195312 C 232.675781 49.195312 229.71875 49.082031 226.871094 48.96875 C 218.109375 70.078125 207.875 90.519531 198.375 111.292969 Z M 169.988281 48.96875 "
       style=" stroke:none;fill-rule:nonzero;fill:rgb(4.61731%,15.959167%,31.50177%);fill-opacity:1;" />
    <path
       id="path4"
       d="M 290.265625 60.191406 L 290.476562 60.191406 L 301.769531 92.851562 L 280.027344 92.851562 Z M 295.753906 45.859375 L 293.957031 45.859375 C 292.480469 48.414062 290.054688 49.636719 287.835938 50.746094 C 288.046875 51.636719 288.046875 52.527344 288.046875 53.636719 C 288.046875 56.96875 286.675781 61.078125 285.832031 63.636719 L 272.324219 103.292969 C 270.949219 107.40625 269.683594 111.738281 267.996094 115.734375 C 265.359375 121.957031 264.195312 122.847656 257.757812 123.625 L 257.757812 126.511719 C 261.980469 126.402344 266.308594 126.289062 270.527344 126.289062 C 274.644531 126.289062 278.867188 126.511719 282.980469 126.511719 L 282.980469 123.625 L 280.554688 123.625 C 276.863281 123.402344 273.378906 123.625 273.378906 118.402344 C 273.378906 114.960938 274.855469 109.847656 276.226562 105.183594 L 278.550781 97.40625 L 303.351562 97.40625 L 308.628906 113.515625 C 309.363281 115.625 310.210938 118.734375 310.210938 119.957031 C 310.210938 123.066406 307.046875 123.625 304.40625 123.625 L 302.503906 123.625 L 302.503906 126.511719 C 307.675781 126.402344 312.742188 126.289062 317.914062 126.289062 C 321.925781 126.289062 326.039062 126.511719 330.050781 126.511719 L 330.050781 123.625 C 326.675781 123.625 323.507812 122.847656 321.925781 120.625 C 320.234375 118.179688 317.386719 108.738281 315.910156 104.40625 Z M 295.753906 45.859375 "
       style=" stroke:none;fill-rule:evenodd;fill:rgb(4.61731%,15.959167%,31.50177%);fill-opacity:1;" />
    <path
       id="path6"
       d="M 349.175781 115.625 C 349.175781 123.398438 345.164062 123.511719 339.570312 123.625 L 339.570312 126.511719 C 344.847656 126.398438 349.808594 126.289062 354.875 126.289062 C 359.519531 126.289062 364.054688 126.511719 369.121094 126.511719 L 369.121094 123.625 C 363.527344 123.511719 359.519531 123.398438 359.519531 115.625 L 359.519531 59.855469 C 359.519531 52.082031 363.527344 51.96875 369.121094 51.859375 L 369.121094 48.972656 C 363.84375 49.082031 358.988281 49.191406 354.136719 49.191406 C 349.386719 49.191406 344.53125 49.082031 339.570312 48.972656 L 339.570312 51.859375 C 345.164062 51.96875 349.175781 52.082031 349.175781 59.855469 Z M 349.175781 115.625 "
       style=" stroke:none;fill-rule:nonzero;fill:rgb(4.61731%,15.959167%,31.50177%);fill-opacity:1;" />
    <path
       id="path8"
       d="M 452.789062 63.300781 C 452.789062 52.414062 456.273438 51.859375 462.710938 51.859375 L 462.710938 48.972656 C 458.59375 48.972656 454.585938 49.191406 450.46875 49.191406 C 445.613281 49.191406 440.652344 49.082031 435.796875 48.972656 L 435.796875 51.859375 C 446.351562 51.96875 448.566406 55.082031 448.566406 65.300781 L 448.566406 109.515625 C 441.390625 101.296875 431.472656 90.296875 422.5 79.855469 C 410.46875 65.855469 400.65625 55.746094 396.328125 48.972656 C 393.480469 48.972656 390.523438 49.191406 387.675781 49.191406 C 384.402344 49.191406 381.234375 49.082031 377.964844 48.972656 L 377.964844 51.859375 C 387.039062 51.859375 390.945312 55.304688 390.945312 64.855469 L 390.945312 109.515625 C 390.945312 123.625 386.089844 123.625 379.652344 123.625 L 379.652344 126.511719 C 384.296875 126.402344 389.046875 126.289062 393.691406 126.289062 C 398.335938 126.289062 403.082031 126.511719 407.726562 126.511719 L 407.726562 123.625 C 396.328125 123.625 395.167969 120.511719 395.167969 105.183594 L 395.167969 63.746094 L 450.363281 127.511719 L 452.789062 127.511719 Z M 452.789062 63.300781 "
       style=" stroke:none;fill-rule:nonzero;fill:rgb(4.61731%,15.959167%,31.50177%);fill-opacity:1;" />
    <path
       id="path10"
       d="M 492.996094 52.527344 L 505.34375 52.527344 C 515.894531 52.527344 520.644531 55.636719 522.226562 66.078125 L 524.339844 65.523438 L 524.339844 48.96875 C 514.101562 49.195312 504.078125 49.195312 493.945312 49.195312 C 486.875 49.195312 479.695312 49.195312 472.628906 48.96875 L 472.628906 51.859375 C 480.964844 52.191406 482.652344 52.636719 482.652344 61.746094 L 482.652344 111.070312 C 482.652344 121.84375 481.808594 123.625 472.628906 123.625 L 472.628906 126.511719 C 480.4375 126.289062 488.246094 126.289062 496.054688 126.289062 C 506.609375 126.289062 517.160156 126.511719 527.714844 126.511719 C 528.773438 120.734375 530.355469 115.070312 532.042969 109.515625 L 529.507812 109.070312 C 525.394531 120.957031 520.75 122.402344 510.40625 122.957031 L 503.863281 122.957031 C 493.417969 122.957031 492.996094 119.847656 492.996094 107.515625 L 492.996094 88.628906 L 504.285156 88.628906 C 512.414062 88.628906 515.789062 88.628906 515.789062 99.292969 L 517.902344 99.292969 C 518.007812 95.738281 517.480469 90.519531 517.480469 86.964844 C 517.480469 82.964844 517.691406 76.964844 517.902344 74.523438 L 515.789062 74.523438 C 515.472656 77.078125 515.472656 84.074219 506.925781 84.074219 L 492.996094 84.074219 Z M 492.996094 52.527344 "
       style=" stroke:none;fill-rule:nonzero;fill:rgb(4.61731%,15.959167%,31.50177%);fill-opacity:1;" />
    <path
       id="path12"
       d="M 158.707031 29.921875 C 158.707031 32.726562 158.527344 32.9375 157.171875 33.148438 L 155.8125 33.300781 C 155.570312 33.480469 155.570312 34.171875 155.8125 34.355469 C 157.921875 34.292969 159.492188 34.265625 160.9375 34.265625 C 162.296875 34.265625 163.804688 34.292969 165.765625 34.355469 C 165.976562 34.171875 165.976562 33.480469 165.765625 33.300781 L 164.558594 33.148438 C 163.199219 32.9375 163.019531 32.726562 163.019531 29.921875 L 163.019531 16.625 C 163.019531 15.84375 163.109375 15.75 163.835938 15.75 L 165.644531 15.75 C 167.902344 15.75 168.324219 17.167969 168.839844 19.097656 C 168.988281 19.339844 169.804688 19.277344 169.953125 19.007812 C 169.894531 17.289062 170.105469 14.847656 170.40625 13.820312 C 170.347656 13.730469 170.136719 13.609375 169.953125 13.609375 C 169.773438 13.609375 169.683594 13.640625 169.5625 13.699219 C 169.289062 14.332031 168.839844 14.363281 166.847656 14.363281 L 155.632812 14.363281 C 153.339844 14.363281 153.25 14.242188 153.101562 13.730469 C 152.980469 13.640625 152.828125 13.609375 152.675781 13.609375 C 152.527344 13.609375 152.375 13.671875 152.253906 13.761719 C 152.042969 14.9375 151.894531 16.808594 151.261719 18.886719 C 151.441406 19.277344 152.015625 19.339844 152.375 19.15625 C 153.28125 16.957031 153.914062 15.75 156.113281 15.75 L 157.984375 15.75 C 158.707031 15.75 158.707031 15.902344 158.707031 16.625 Z M 158.707031 29.921875 "
       style=" stroke:none;fill-rule:nonzero;fill:rgb(4.61731%,15.959167%,31.50177%);fill-opacity:1;" />
    <path
       id="path14"
       d="M 190.882812 24.707031 C 192.148438 24.707031 192.148438 24.734375 192.148438 25.582031 L 192.148438 29.921875 C 192.148438 32.726562 191.996094 32.9375 190.609375 33.210938 L 189.949219 33.300781 C 189.707031 33.480469 189.707031 34.175781 189.949219 34.355469 C 191.394531 34.296875 192.871094 34.265625 194.378906 34.265625 C 195.765625 34.265625 197.242188 34.296875 198.75 34.355469 C 198.992188 34.175781 198.992188 33.480469 198.75 33.300781 L 198.027344 33.179688 C 196.640625 32.9375 196.460938 32.726562 196.460938 29.921875 L 196.460938 18.707031 C 196.460938 15.902344 196.640625 15.691406 198.027344 15.417969 L 198.632812 15.328125 C 198.871094 15.148438 198.871094 14.453125 198.632812 14.273438 C 197.242188 14.335938 195.855469 14.363281 194.378906 14.363281 C 192.929688 14.363281 191.453125 14.335938 189.796875 14.273438 C 189.554688 14.453125 189.554688 15.148438 189.796875 15.328125 L 190.609375 15.449219 C 191.996094 15.691406 192.148438 15.902344 192.148438 18.707031 L 192.148438 22.203125 C 192.148438 23.078125 192.148438 23.109375 190.882812 23.109375 L 184.609375 23.109375 C 183.375 23.109375 183.34375 23.078125 183.34375 22.203125 L 183.34375 18.707031 C 183.34375 15.902344 183.523438 15.691406 184.820312 15.417969 L 185.453125 15.328125 C 185.695312 15.148438 185.695312 14.453125 185.453125 14.273438 C 184.128906 14.335938 182.621094 14.363281 181.261719 14.363281 C 179.816406 14.363281 178.246094 14.335938 176.769531 14.273438 C 176.527344 14.453125 176.527344 15.148438 176.769531 15.328125 L 177.496094 15.417969 C 178.851562 15.691406 179.03125 15.902344 179.03125 18.707031 L 179.03125 29.921875 C 179.03125 32.726562 178.851562 32.9375 177.496094 33.210938 L 176.769531 33.300781 C 176.527344 33.480469 176.527344 34.175781 176.769531 34.355469 C 178.308594 34.296875 179.816406 34.265625 181.261719 34.265625 C 182.621094 34.265625 184.128906 34.296875 185.847656 34.355469 C 186.085938 34.175781 186.085938 33.480469 185.847656 33.300781 L 184.882812 33.179688 C 183.523438 32.9375 183.34375 32.726562 183.34375 29.921875 L 183.34375 25.582031 C 183.34375 24.734375 183.375 24.707031 184.609375 24.707031 Z M 190.882812 24.707031 "
       style=" stroke:none;fill-rule:nonzero;fill:rgb(4.61731%,15.959167%,31.50177%);fill-opacity:1;" />
    <path
       id="path16"
       d="M 212.816406 16.925781 C 212.816406 15.8125 212.816406 15.75 213.8125 15.75 L 216.222656 15.75 C 217.703125 15.75 218.605469 16.113281 219.179688 16.6875 C 219.570312 17.109375 219.992188 18.011719 220.324219 19.066406 C 220.625 19.339844 221.320312 19.277344 221.441406 18.945312 C 221.289062 16.925781 221.078125 14.757812 221.050781 14.273438 C 220.65625 14.332031 218.9375 14.363281 217.007812 14.363281 L 210.613281 14.363281 C 209.167969 14.363281 207.691406 14.332031 206.273438 14.273438 C 205.972656 14.453125 205.941406 15.148438 206.214844 15.328125 L 206.96875 15.480469 C 208.324219 15.722656 208.503906 15.933594 208.503906 18.675781 L 208.503906 29.921875 C 208.503906 32.695312 208.324219 32.90625 206.96875 33.089844 L 205.550781 33.300781 C 205.308594 33.449219 205.308594 34.175781 205.550781 34.355469 C 207.8125 34.292969 209.289062 34.265625 210.734375 34.265625 L 214.65625 34.265625 C 217.128906 34.265625 220.023438 34.292969 221.621094 34.355469 C 222.042969 33.539062 222.765625 31.097656 222.886719 29.53125 C 222.765625 29.167969 222.011719 29.046875 221.773438 29.378906 C 220.113281 32.785156 219.089844 32.878906 216.464844 32.878906 C 214.265625 32.878906 213.691406 32.636719 213.300781 32.09375 C 212.9375 31.582031 212.816406 30.617188 212.816406 29.230469 L 212.816406 25.640625 C 212.816406 24.734375 212.847656 24.707031 213.660156 24.707031 L 215.742188 24.707031 C 217.308594 24.707031 217.640625 24.945312 217.972656 26.394531 L 218.125 27.148438 C 218.335938 27.421875 219.089844 27.390625 219.238281 27.117188 C 219.179688 26.152344 219.148438 25.066406 219.148438 23.921875 C 219.148438 22.777344 219.179688 21.691406 219.238281 20.726562 C 219.089844 20.453125 218.335938 20.453125 218.125 20.695312 L 217.972656 21.449219 C 217.640625 22.898438 217.308594 23.109375 215.742188 23.109375 L 213.660156 23.109375 C 212.847656 23.109375 212.816406 23.046875 212.816406 22.203125 Z M 212.816406 16.925781 "
       style=" stroke:none;fill-rule:nonzero;fill:rgb(4.61731%,15.959167%,31.50177%);fill-opacity:1;" />
    <path
       id="path18"
       d="M 244.234375 26.242188 C 244.234375 29.53125 244.898438 31.761719 246.464844 33.058594 C 248.09375 34.386719 250.144531 34.746094 252.433594 34.746094 C 254.878906 34.746094 257.078125 33.992188 258.40625 32.574219 C 260.066406 30.734375 260.335938 28.144531 260.335938 25.308594 L 260.335938 21.933594 C 260.335938 19.492188 260.457031 17.199219 260.789062 16.414062 C 261.058594 15.78125 261.632812 15.601562 262.417969 15.417969 L 262.957031 15.296875 C 263.199219 15.058594 263.140625 14.453125 262.957031 14.273438 C 261.8125 14.332031 260.695312 14.363281 259.582031 14.363281 C 258.34375 14.363281 257.167969 14.332031 255.542969 14.273438 C 255.359375 14.453125 255.300781 15.058594 255.542969 15.296875 L 256.355469 15.449219 C 257.167969 15.601562 257.832031 15.78125 258.105469 16.414062 C 258.433594 17.199219 258.554688 19.492188 258.554688 21.933594 L 258.554688 25.582031 C 258.554688 29.710938 257.378906 33.089844 253.519531 33.089844 C 248.9375 33.089844 248.546875 29.199219 248.546875 25.671875 L 248.546875 18.707031 C 248.546875 15.902344 248.726562 15.691406 250.082031 15.417969 L 250.808594 15.296875 C 251.046875 15.117188 251.046875 14.453125 250.808594 14.273438 C 249.359375 14.332031 247.882812 14.363281 246.40625 14.363281 C 244.957031 14.363281 243.449219 14.332031 242.003906 14.273438 C 241.671875 14.453125 241.699219 15.117188 241.941406 15.296875 L 242.695312 15.449219 C 244.050781 15.691406 244.234375 15.902344 244.234375 18.707031 Z M 244.234375 26.242188 "
       style=" stroke:none;fill-rule:nonzero;fill:rgb(4.61731%,15.959167%,31.50177%);fill-opacity:1;" />
    <path
       id="path20"
       d="M 288.082031 21.933594 C 288.082031 19.488281 288.203125 17.230469 288.53125 16.414062 C 288.804688 15.78125 289.378906 15.601562 290.164062 15.417969 L 290.707031 15.328125 C 290.945312 15.085938 290.886719 14.453125 290.707031 14.273438 C 289.527344 14.332031 288.441406 14.363281 287.328125 14.363281 C 286.089844 14.363281 284.914062 14.332031 283.289062 14.273438 C 283.105469 14.453125 283.046875 15.085938 283.289062 15.328125 L 284.101562 15.449219 C 284.914062 15.601562 285.578125 15.78125 285.851562 16.414062 C 286.179688 17.230469 286.304688 19.488281 286.304688 21.933594 L 286.304688 26.09375 C 286.304688 26.636719 286.304688 27.148438 286.179688 27.449219 C 285.488281 26.753906 284.644531 25.699219 283.289062 24.132812 L 280.753906 21.148438 C 278.039062 17.921875 276.082031 15.628906 275.777344 14.273438 C 275.144531 14.332031 274.269531 14.363281 273.246094 14.363281 C 272.007812 14.363281 270.503906 14.332031 269.085938 14.273438 C 268.78125 14.363281 268.753906 15.085938 268.964844 15.328125 L 269.808594 15.449219 C 270.863281 15.660156 271.316406 15.960938 271.527344 16.476562 C 271.738281 16.898438 271.738281 17.378906 271.738281 19.039062 L 271.738281 26.695312 C 271.738281 29.140625 271.617188 31.398438 271.316406 32.214844 C 271.046875 32.847656 270.472656 33.027344 269.65625 33.207031 L 269.144531 33.300781 C 268.902344 33.539062 268.964844 34.171875 269.144531 34.355469 C 270.292969 34.292969 271.40625 34.265625 272.523438 34.265625 C 273.730469 34.265625 274.933594 34.292969 276.5625 34.355469 C 276.742188 34.171875 276.804688 33.539062 276.5625 33.300781 L 275.71875 33.179688 C 274.933594 33.027344 274.242188 32.847656 273.96875 32.214844 C 273.636719 31.398438 273.519531 29.140625 273.519531 26.695312 L 273.519531 20.847656 C 273.519531 19.730469 273.519531 19.21875 273.667969 18.917969 C 274.210938 19.367188 275.238281 20.605469 276.957031 22.777344 L 283.921875 31.398438 C 285.335938 33.148438 286.332031 34.6875 286.363281 34.6875 C 287.085938 34.6875 287.929688 34.355469 288.140625 33.992188 C 288.082031 33 288.082031 31.097656 288.082031 29.140625 Z M 288.082031 21.933594 "
       style=" stroke:none;fill-rule:nonzero;fill:rgb(4.61731%,15.959167%,31.50177%);fill-opacity:1;" />
    <path
       id="path22"
       d="M 303.882812 18.765625 C 303.882812 15.929688 304.0625 15.722656 305.449219 15.480469 L 306.292969 15.328125 C 306.535156 15.148438 306.535156 14.453125 306.292969 14.273438 C 304.667969 14.335938 303.160156 14.363281 301.742188 14.363281 C 300.292969 14.363281 298.785156 14.335938 297.160156 14.273438 C 296.917969 14.453125 296.917969 15.148438 297.160156 15.328125 L 298.003906 15.480469 C 299.390625 15.722656 299.570312 15.929688 299.570312 18.765625 L 299.570312 29.863281 C 299.570312 32.695312 299.390625 32.90625 298.003906 33.148438 L 297.160156 33.300781 C 296.917969 33.480469 296.917969 34.175781 297.160156 34.355469 C 298.785156 34.296875 300.292969 34.265625 301.742188 34.265625 C 303.160156 34.265625 304.636719 34.296875 306.265625 34.355469 C 306.503906 34.175781 306.535156 33.480469 306.292969 33.300781 L 305.449219 33.148438 C 304.0625 32.90625 303.882812 32.695312 303.882812 29.863281 Z M 303.882812 18.765625 "
       style=" stroke:none;fill-rule:nonzero;fill:rgb(4.61731%,15.959167%,31.50177%);fill-opacity:1;" />
    <path
       id="path24"
       d="M 328.277344 21.570312 C 329.332031 19.128906 330.117188 17.5 330.78125 16.503906 C 331.171875 15.871094 331.59375 15.628906 332.4375 15.449219 L 333.222656 15.300781 C 333.433594 15.117188 333.402344 14.394531 333.160156 14.273438 C 332.285156 14.335938 331.382812 14.363281 330.355469 14.363281 C 329.210938 14.363281 328.066406 14.335938 326.648438 14.273438 C 326.285156 14.425781 326.285156 15.058594 326.527344 15.300781 L 327.402344 15.507812 C 328.125 15.660156 328.214844 15.8125 328.214844 16.023438 C 328.214844 16.203125 328.125 16.535156 327.914062 17.109375 C 327.554688 18.132812 326.316406 21.511719 325.53125 23.410156 L 324.417969 26.242188 C 324.054688 27.148438 323.695312 27.964844 323.453125 28.476562 C 323.242188 27.964844 322.9375 27.269531 322.515625 26.152344 L 319.863281 19.367188 C 319.140625 17.5625 318.65625 16.292969 318.65625 16.050781 C 318.65625 15.78125 318.867188 15.597656 319.410156 15.480469 L 320.316406 15.300781 C 320.496094 15.027344 320.527344 14.453125 320.285156 14.273438 C 318.445312 14.335938 317.152344 14.363281 315.765625 14.363281 C 314.195312 14.363281 313.199219 14.304688 311.660156 14.273438 C 311.390625 14.425781 311.300781 14.96875 311.542969 15.300781 L 312.386719 15.507812 C 313.835938 15.871094 313.773438 15.75 315.007812 18.796875 L 319.894531 31.070312 C 320.316406 32.09375 320.832031 33.691406 321.160156 34.507812 C 321.34375 34.65625 321.613281 34.746094 321.976562 34.746094 C 322.425781 34.746094 322.789062 34.65625 323.03125 34.507812 C 323.722656 32.816406 324.539062 30.433594 326.074219 26.785156 Z M 328.277344 21.570312 "
       style=" stroke:none;fill-rule:nonzero;fill:rgb(4.61731%,15.959167%,31.50177%);fill-opacity:1;" />
    <path
       id="path26"
       d="M 344.621094 16.925781 C 344.621094 15.8125 344.621094 15.75 345.617188 15.75 L 348.03125 15.75 C 349.507812 15.75 350.410156 16.113281 350.984375 16.6875 C 351.375 17.109375 351.796875 18.011719 352.128906 19.066406 C 352.433594 19.339844 353.125 19.277344 353.246094 18.945312 C 353.09375 16.925781 352.882812 14.757812 352.855469 14.273438 C 352.460938 14.332031 350.742188 14.363281 348.8125 14.363281 L 342.417969 14.363281 C 340.972656 14.363281 339.496094 14.332031 338.078125 14.273438 C 337.777344 14.453125 337.746094 15.148438 338.019531 15.328125 L 338.773438 15.480469 C 340.128906 15.722656 340.308594 15.933594 340.308594 18.675781 L 340.308594 29.921875 C 340.308594 32.695312 340.128906 32.90625 338.773438 33.089844 L 337.355469 33.300781 C 337.113281 33.449219 337.113281 34.175781 337.355469 34.355469 C 339.617188 34.292969 341.09375 34.265625 342.539062 34.265625 L 346.460938 34.265625 C 348.933594 34.265625 351.828125 34.292969 353.425781 34.355469 C 353.847656 33.539062 354.570312 31.097656 354.691406 29.53125 C 354.570312 29.167969 353.820312 29.046875 353.578125 29.378906 C 351.917969 32.785156 350.894531 32.878906 348.269531 32.878906 C 346.070312 32.878906 345.496094 32.636719 345.105469 32.09375 C 344.742188 31.582031 344.621094 30.617188 344.621094 29.230469 L 344.621094 25.640625 C 344.621094 24.734375 344.652344 24.707031 345.464844 24.707031 L 347.546875 24.707031 C 349.113281 24.707031 349.445312 24.945312 349.777344 26.394531 L 349.929688 27.148438 C 350.140625 27.421875 350.894531 27.390625 351.042969 27.117188 C 350.984375 26.152344 350.953125 25.066406 350.953125 23.921875 C 350.953125 22.777344 350.984375 21.691406 351.042969 20.726562 C 350.894531 20.453125 350.140625 20.453125 349.929688 20.695312 L 349.777344 21.449219 C 349.445312 22.898438 349.113281 23.109375 347.546875 23.109375 L 345.464844 23.109375 C 344.652344 23.109375 344.621094 23.046875 344.621094 22.203125 Z M 344.621094 16.925781 "
       style=" stroke:none;fill-rule:nonzero;fill:rgb(4.61731%,15.959167%,31.50177%);fill-opacity:1;" />
    <path
       id="path28"
       d="M 367.441406 17.199219 C 367.503906 15.75 367.503906 15.660156 368.738281 15.660156 C 371.089844 15.660156 372.6875 17.410156 372.6875 20.121094 C 372.6875 21.902344 372.117188 22.867188 371.605469 23.378906 C 371.03125 23.953125 370.398438 24.222656 369.3125 24.222656 C 367.53125 24.222656 367.441406 24.132812 367.441406 23.078125 Z M 363.3125 29.921875 C 363.3125 32.695312 363.128906 32.90625 361.773438 33.148438 L 360.960938 33.300781 C 360.71875 33.449219 360.71875 34.175781 360.960938 34.355469 C 362.527344 34.292969 363.855469 34.265625 365.363281 34.265625 C 366.808594 34.265625 368.195312 34.292969 369.792969 34.355469 C 370.003906 34.175781 370.003906 33.449219 369.792969 33.300781 L 368.980469 33.148438 C 367.621094 32.90625 367.441406 32.695312 367.441406 29.921875 L 367.441406 26.214844 C 367.441406 25.609375 367.503906 25.550781 368.558594 25.550781 C 369.3125 25.550781 369.792969 25.792969 370.15625 26.605469 C 370.847656 28.203125 371.542969 29.683594 372.507812 31.277344 C 373.835938 33.449219 375.585938 34.445312 378.359375 34.445312 C 379.292969 34.445312 380.257812 34.386719 380.738281 34.175781 C 380.890625 33.992188 380.890625 33.539062 380.617188 33.390625 C 380.167969 33.359375 379.382812 33.179688 378.597656 32.546875 C 377.152344 31.308594 375.914062 29.046875 373.925781 25.007812 C 373.773438 24.675781 373.773438 24.496094 374.078125 24.34375 C 375.464844 23.652344 377.273438 22.503906 377.273438 19.820312 C 377.273438 17.890625 376.367188 16.382812 374.617188 15.359375 C 373.472656 14.664062 371.273438 14.273438 368.707031 14.273438 C 365.84375 14.273438 363.492188 14.394531 361.230469 14.542969 C 360.871094 14.695312 360.871094 15.449219 361.171875 15.601562 L 361.984375 15.722656 C 363.25 15.902344 363.3125 16.234375 363.3125 19.246094 Z M 363.3125 29.921875 "
       style=" stroke:none;fill-rule:evenodd;fill:rgb(4.61731%,15.959167%,31.50177%);fill-opacity:1;" />
    <path
       id="path30"
       d="M 399.417969 28.625 C 399.417969 25.308594 397.035156 23.5625 395.164062 22.566406 L 393.171875 21.511719 C 391.667969 20.726562 390.429688 19.460938 390.429688 18.074219 C 390.429688 16.566406 391.515625 15.269531 393.503906 15.269531 C 395.675781 15.269531 396.976562 17.46875 397.488281 19.007812 C 397.757812 19.308594 398.511719 19.277344 398.660156 18.917969 C 398.660156 16.894531 398.359375 15.269531 398.121094 14.605469 C 397.757812 14.542969 397.488281 14.484375 397.09375 14.363281 C 395.890625 14 394.652344 13.882812 393.65625 13.882812 C 389.285156 13.882812 386.660156 16.234375 386.660156 19.640625 C 386.691406 22.625 389.042969 24.433594 391.214844 25.519531 C 393.023438 26.425781 395.316406 27.871094 395.316406 30.3125 C 395.316406 31.820312 394.289062 33.359375 392.058594 33.359375 C 389.496094 33.359375 387.476562 30.585938 386.871094 28.625 C 386.632812 28.292969 385.9375 28.324219 385.726562 28.71875 C 385.726562 30.769531 386.117188 32.9375 386.691406 33.601562 C 387.324219 33.964844 389.042969 34.746094 391.816406 34.746094 C 396.371094 34.746094 399.417969 32.335938 399.417969 28.625 "
       style=" stroke:none;fill-rule:nonzero;fill:rgb(4.61731%,15.959167%,31.50177%);fill-opacity:1;" />
    <path
       id="path32"
       d="M 413.140625 18.765625 C 413.140625 15.929688 413.324219 15.722656 414.710938 15.480469 L 415.554688 15.328125 C 415.796875 15.148438 415.796875 14.453125 415.554688 14.273438 C 413.925781 14.335938 412.417969 14.363281 411 14.363281 C 409.554688 14.363281 408.046875 14.335938 406.417969 14.273438 C 406.175781 14.453125 406.175781 15.148438 406.417969 15.328125 L 407.261719 15.480469 C 408.648438 15.722656 408.828125 15.929688 408.828125 18.765625 L 408.828125 29.863281 C 408.828125 32.695312 408.648438 32.90625 407.261719 33.148438 L 406.417969 33.300781 C 406.175781 33.480469 406.175781 34.175781 406.417969 34.355469 C 408.046875 34.296875 409.554688 34.265625 411 34.265625 C 412.417969 34.265625 413.894531 34.296875 415.523438 34.355469 C 415.765625 34.175781 415.796875 33.480469 415.554688 33.300781 L 414.710938 33.148438 C 413.324219 32.90625 413.140625 32.695312 413.140625 29.863281 Z M 413.140625 18.765625 "
       style=" stroke:none;fill-rule:nonzero;fill:rgb(4.61731%,15.959167%,31.50177%);fill-opacity:1;" />
    <path
       id="path34"
       d="M 429.335938 29.921875 C 429.335938 32.726562 429.152344 32.9375 427.796875 33.148438 L 426.441406 33.300781 C 426.199219 33.480469 426.199219 34.171875 426.441406 34.355469 C 428.550781 34.292969 430.117188 34.265625 431.566406 34.265625 C 432.921875 34.265625 434.429688 34.292969 436.390625 34.355469 C 436.601562 34.171875 436.601562 33.480469 436.390625 33.300781 L 435.183594 33.148438 C 433.828125 32.9375 433.648438 32.726562 433.648438 29.921875 L 433.648438 16.625 C 433.648438 15.84375 433.734375 15.75 434.460938 15.75 L 436.269531 15.75 C 438.53125 15.75 438.953125 17.167969 439.464844 19.097656 C 439.617188 19.339844 440.429688 19.277344 440.582031 19.007812 C 440.519531 17.289062 440.734375 14.847656 441.035156 13.820312 C 440.972656 13.730469 440.761719 13.609375 440.582031 13.609375 C 440.398438 13.609375 440.308594 13.640625 440.1875 13.699219 C 439.917969 14.332031 439.464844 14.363281 437.476562 14.363281 L 426.257812 14.363281 C 423.96875 14.363281 423.878906 14.242188 423.726562 13.730469 C 423.605469 13.640625 423.453125 13.609375 423.304688 13.609375 C 423.152344 13.609375 423.003906 13.671875 422.882812 13.761719 C 422.671875 14.9375 422.519531 16.808594 421.886719 18.886719 C 422.066406 19.277344 422.640625 19.339844 423.003906 19.15625 C 423.90625 16.957031 424.539062 15.75 426.742188 15.75 L 428.609375 15.75 C 429.335938 15.75 429.335938 15.902344 429.335938 16.625 Z M 429.335938 29.921875 "
       style=" stroke:none;fill-rule:nonzero;fill:rgb(4.61731%,15.959167%,31.50177%);fill-opacity:1;" />
    <path
       id="path36"
       d="M 457.832031 27.8125 C 457.832031 26.09375 458.136719 25.339844 458.917969 23.921875 L 460.816406 20.484375 C 462.265625 17.863281 463.019531 16.777344 463.472656 16.203125 C 463.804688 15.78125 464.375 15.601562 464.917969 15.480469 L 465.703125 15.328125 C 465.945312 15.117188 465.945312 14.394531 465.582031 14.273438 C 464.707031 14.332031 463.773438 14.363281 462.628906 14.363281 C 461.542969 14.363281 460.457031 14.332031 459.25 14.273438 C 458.949219 14.421875 458.980469 15.179688 459.222656 15.328125 L 459.914062 15.449219 C 460.636719 15.570312 460.9375 15.691406 460.9375 15.871094 C 460.9375 16.234375 460.515625 17.230469 459.371094 19.367188 C 458.558594 20.90625 457.714844 22.65625 456.839844 24.132812 C 456.476562 23.378906 455.902344 22.171875 455.449219 21.179688 L 454.035156 17.953125 C 453.402344 16.535156 453.25 16.082031 453.25 15.84375 C 453.25 15.8125 453.429688 15.691406 453.972656 15.570312 L 455 15.328125 C 455.269531 15.085938 455.210938 14.394531 454.9375 14.273438 C 453.914062 14.332031 452.375 14.363281 450.535156 14.363281 C 448.757812 14.363281 447.644531 14.332031 446.285156 14.273438 C 445.925781 14.363281 445.894531 15.085938 446.164062 15.328125 L 447.191406 15.511719 C 448.242188 15.722656 448.515625 16.171875 449.117188 17.410156 L 452.707031 24.828125 C 453.492188 26.425781 453.519531 26.90625 453.519531 28.414062 L 453.519531 29.921875 C 453.519531 32.726562 453.339844 32.9375 451.984375 33.148438 L 450.957031 33.300781 C 450.71875 33.480469 450.71875 34.171875 450.957031 34.355469 C 452.738281 34.292969 454.246094 34.265625 455.691406 34.265625 C 457.140625 34.265625 458.617188 34.292969 460.578125 34.355469 C 460.789062 34.171875 460.789062 33.480469 460.578125 33.300781 L 459.371094 33.148438 C 458.015625 32.9375 457.832031 32.726562 457.832031 29.921875 Z M 457.832031 27.8125 "
       style=" stroke:none;fill-rule:nonzero;fill:rgb(4.61731%,15.959167%,31.50177%);fill-opacity:1;" />
    <path
       id="path38"
       d="M 499.832031 24.617188 C 499.832031 29.5 498.296875 33.359375 494.34375 33.359375 C 489.429688 33.359375 488.132812 27.449219 488.132812 23.769531 C 488.132812 18.734375 490.125 15.269531 493.832031 15.269531 C 497.570312 15.269531 499.832031 19.460938 499.832031 24.617188 M 494.074219 13.882812 C 487.769531 13.882812 483.308594 18.496094 483.308594 24.464844 C 483.308594 30.765625 487.710938 34.746094 493.773438 34.746094 C 500.253906 34.746094 504.65625 30.796875 504.65625 24.222656 C 504.65625 18.101562 500.347656 13.882812 494.074219 13.882812 "
       style=" stroke:none;fill-rule:evenodd;fill:rgb(4.61731%,15.959167%,31.50177%);fill-opacity:1;" />
    <path
       id="path40"
       d="M 518.78125 16.988281 C 518.78125 15.8125 518.78125 15.75 519.777344 15.75 L 522.128906 15.75 C 523.664062 15.75 524.570312 16.113281 525.082031 16.746094 C 525.386719 17.136719 525.625 17.859375 525.957031 19.097656 C 526.320312 19.339844 526.984375 19.308594 527.101562 18.976562 C 527.042969 16.957031 527.042969 14.785156 527.042969 14.273438 C 526.621094 14.335938 524.902344 14.363281 522.972656 14.363281 L 516.640625 14.363281 C 515.191406 14.363281 513.683594 14.335938 512.390625 14.273438 C 512.058594 14.394531 512.058594 15.148438 512.328125 15.328125 L 512.933594 15.417969 C 514.289062 15.691406 514.46875 15.902344 514.46875 18.707031 L 514.46875 29.921875 C 514.46875 32.726562 514.289062 32.9375 512.933594 33.148438 L 511.9375 33.300781 C 511.695312 33.480469 511.695312 34.175781 511.9375 34.355469 C 513.746094 34.296875 515.253906 34.265625 516.640625 34.265625 C 518.085938 34.265625 519.566406 34.296875 521.433594 34.355469 C 521.648438 34.175781 521.648438 33.480469 521.433594 33.300781 L 520.320312 33.148438 C 518.960938 32.9375 518.78125 32.726562 518.78125 29.921875 L 518.78125 25.851562 C 518.78125 25.039062 518.8125 24.945312 519.625 24.945312 L 521.949219 24.945312 C 523.542969 24.945312 523.847656 25.1875 524.179688 26.636719 L 524.328125 27.359375 C 524.539062 27.628906 525.292969 27.601562 525.476562 27.328125 C 525.414062 26.425781 525.386719 25.308594 525.386719 24.195312 C 525.386719 23.046875 525.414062 21.933594 525.476562 20.96875 C 525.292969 20.695312 524.539062 20.664062 524.328125 20.9375 L 524.179688 21.660156 C 523.847656 23.136719 523.542969 23.347656 521.949219 23.347656 L 519.625 23.347656 C 518.8125 23.347656 518.78125 23.257812 518.78125 22.445312 Z M 518.78125 16.988281 "
       style=" stroke:none;fill-rule:nonzero;fill:rgb(4.61731%,15.959167%,31.50177%);fill-opacity:1;" />
    <path
       id="path42"
       d="M 73.265625 130.566406 L 18.246094 130.566406 C 18.246094 130.566406 55.074219 142.917969 73.265625 163.503906 C 73.308594 163.554688 73.550781 163.554688 73.597656 163.503906 C 91.789062 142.917969 128.617188 130.566406 128.617188 130.566406 Z M 73.265625 130.566406 "
       style=" stroke:none;fill-rule:nonzero;fill:rgb(4.61731%,15.959167%,31.50177%);fill-opacity:1;" />
    <path
       id="path44"
       d="M 18.246094 40.777344 L 128.613281 40.777344 L 128.613281 125.855469 L 18.246094 125.855469 Z M 18.246094 40.777344 "
       style=" stroke:none;fill-rule:nonzero;fill:rgb(51.554871%,76.011658%,92.431641%);fill-opacity:1;" />
    <path
       id="path46"
       d="M 17.957031 11.460938 L 128.328125 11.460938 L 128.328125 36.464844 L 17.957031 36.464844 Z M 17.957031 11.460938 "
       style=" stroke:none;fill-rule:nonzero;fill:rgb(4.61731%,15.959167%,31.50177%);fill-opacity:1;" />
    <path
       id="path48"
       d="M 95.273438 123.554688 L 95.273438 70.925781 C 99.363281 70.925781 115.34375 60.121094 120.566406 45.292969 L 120.566406 95.917969 C 120.566406 100.480469 118.273438 102.738281 115.261719 106.46875 C 108.988281 114.25 103.847656 117.636719 95.273438 123.554688 "
       style=" stroke:none;fill-rule:nonzero;fill:rgb(100%,100%,100%);fill-opacity:1;" />
    <path
       id="path50"
       d="M 26.292969 123.554688 L 26.292969 70.929688 C 30.382812 70.929688 46.359375 60.125 51.585938 45.296875 L 51.585938 95.917969 C 51.585938 100.484375 49.292969 102.738281 46.28125 106.46875 C 40.007812 114.25 34.867188 117.636719 26.292969 123.554688 "
       style=" stroke:none;fill-rule:nonzero;fill:rgb(100%,100%,100%);fill-opacity:1;" />
    <path
       id="path52"
       d="M 55.035156 141.949219 L 55.035156 73.523438 C 60.980469 73.523438 84.226562 59.476562 91.824219 40.203125 L 91.824219 106.015625 C 91.824219 111.953125 88.488281 114.886719 84.109375 119.734375 C 74.980469 129.851562 67.507812 134.257812 55.035156 141.949219 "
       style=" stroke:none;fill-rule:nonzero;fill:rgb(100%,100%,100%);fill-opacity:1;" />
    <path
       id="path54"
       transform="matrix(1,0,0,-1,55.0353,141.9482)"
       d="M -0.00014375 -0.00101875 L -0.00014375 68.424763 C 5.945169 68.424763 29.191262 82.471638 36.788919 101.745075 L 36.788919 35.932575 C 36.788919 29.995075 33.452981 27.061481 29.074075 22.213825 C 19.945169 12.096638 12.472512 7.690388 -0.00014375 -0.00101875 Z M -0.00014375 -0.00101875 "
       style="fill:none;stroke-width:0.561;stroke-linecap:butt;stroke-linejoin:miter;stroke:rgb(100%,100%,100%);stroke-opacity:1;stroke-miterlimit:3.864;" />
    <path
       id="path56"
       d="M 34.75 32.871094 C 32.019531 32.871094 31.769531 32.125 31.769531 30.277344 L 31.769531 14.554688 L 31.300781 14.554688 L 24.351562 17.5625 L 24.351562 18.277344 C 25.289062 17.917969 26.226562 17.585938 26.613281 17.585938 C 27.6875 17.585938 27.6875 18.800781 27.6875 19.492188 L 27.6875 30.113281 C 27.6875 31.824219 27.605469 32.898438 24.40625 32.871094 L 24.40625 33.53125 L 34.75 33.53125 Z M 34.75 32.871094 "
       style=" stroke:none;fill-rule:nonzero;fill:rgb(100%,100%,100%);fill-opacity:1;" />
    <path
       id="path58"
       d="M 55.085938 29.203125 C 55.085938 27.1875 55.667969 26.332031 56.496094 25.09375 C 58.371094 26.332031 60.164062 27.519531 60.164062 29.78125 C 60.164062 30.5 60.164062 33.007812 57.707031 33.007812 C 55.914062 33.007812 55.085938 31.1875 55.085938 29.203125 M 58.316406 14.554688 C 53.902344 14.554688 52.050781 16.898438 52.050781 19.464844 C 52.050781 21.753906 53.820312 23.4375 55.886719 24.59375 C 54.039062 25.171875 51.75 26.25 51.75 29.257812 C 51.75 32.289062 54.535156 33.890625 57.515625 33.890625 C 61.460938 33.890625 64 31.738281 64 28.292969 C 64 25.726562 62.234375 23.792969 59.859375 22.386719 C 61.378906 21.890625 63.613281 20.898438 63.613281 18.554688 C 63.613281 16.980469 62.507812 14.554688 58.316406 14.554688 M 55.613281 17.585938 C 55.613281 16.457031 56.523438 15.355469 57.875 15.355469 C 59.914062 15.355469 60.328125 17.3125 60.328125 18.71875 C 60.328125 20.375 59.832031 21.035156 59.199219 21.890625 C 58.921875 21.753906 55.613281 20.152344 55.613281 17.585938 "
       style=" stroke:none;fill-rule:evenodd;fill:rgb(100%,100%,100%);fill-opacity:1;" />
    <path
       id="path60"
       d="M 88.308594 29.230469 C 88.308594 31.40625 88.308594 33.144531 86.625 33.144531 C 84.914062 33.144531 84.503906 31.4375 84.503906 26.003906 C 84.503906 25.089844 84.722656 23.546875 84.75 23.519531 C 85.054688 23.1875 85.523438 23.160156 85.964844 23.160156 C 87.867188 23.160156 88.308594 25.257812 88.308594 29.230469 M 92.363281 14.554688 C 84.089844 15.382812 80.171875 20.675781 80.171875 25.699219 C 80.171875 32.320312 84.007812 33.890625 86.488281 33.890625 C 91.453125 33.890625 92.5 29.203125 92.5 27.710938 C 92.5 22.96875 89.410156 21.917969 87.507812 21.917969 C 86.183594 21.917969 85.6875 22.109375 85.027344 22.386719 C 86.238281 17.3125 89.605469 15.824219 92.363281 15.269531 Z M 92.363281 14.554688 "
       style=" stroke:none;fill-rule:evenodd;fill:rgb(100%,100%,100%);fill-opacity:1;" />
    <path
       id="path62"
       d="M 111.929688 18.386719 L 119.597656 18.386719 L 120.785156 14.886719 L 111.902344 14.886719 L 109.226562 24.402344 C 111.214844 24.539062 113.308594 24.675781 115.160156 25.503906 C 116.621094 26.140625 118.109375 27.519531 118.109375 29.203125 C 118.109375 31.464844 116.289062 32.070312 115.351562 32.070312 C 113.613281 32.070312 112.039062 29.671875 110.136719 29.671875 C 108.949219 29.671875 108.425781 30.554688 108.425781 31.324219 C 108.425781 32.898438 110.246094 33.753906 112.371094 33.753906 C 117.390625 33.753906 120.261719 30.71875 120.261719 27.105469 C 120.261719 24.402344 118.632812 22.664062 117.390625 21.972656 C 115.542969 20.925781 113.832031 20.761719 111.324219 20.621094 Z M 111.929688 18.386719 "
       style=" stroke:none;fill-rule:nonzero;fill:rgb(100%,100%,100%);fill-opacity:1;" />
  </g>
</svg>
