<?xml version="1.0" encoding="UTF-8"?>
<svg xmlns="http://www.w3.org/2000/svg" xmlns:xlink="http://www.w3.org/1999/xlink" width="374.927002pt" height="312.955505pt" viewBox="0 0 374.927002 312.955505" version="1.1">
<defs>
<clipPath id="clip1">
  <path d="M 0 0 L 374.925781 0 L 374.925781 247.117188 L 0 247.117188 Z M 0 0 "/>
</clipPath>
<clipPath id="clip2">
  <rect width="375" height="248"/>
</clipPath>
<g id="surface7" clip-path="url(#clip2)">
<path style="fill:none;stroke-width:1;stroke-linecap:square;stroke-linejoin:round;stroke:rgb(0%,0%,0%);stroke-opacity:1;stroke-miterlimit:4;" d="M 8.5 8.5 L 247.117188 8.5 " transform="matrix(1,0,0,1,0,-0.0000004)"/>
</g>
<clipPath id="clip3">
  <rect width="375" height="248"/>
</clipPath>
<g id="surface10" clip-path="url(#clip3)">
<path style="fill:none;stroke-width:1;stroke-linecap:square;stroke-linejoin:round;stroke:rgb(0%,0%,0%);stroke-opacity:1;stroke-miterlimit:4;" d="M 25.542969 25.542969 L 264.160156 25.542969 " transform="matrix(1,0,0,1,0,-0.0000004)"/>
</g>
<clipPath id="clip4">
  <rect width="375" height="248"/>
</clipPath>
<g id="surface13" clip-path="url(#clip4)">
<path style="fill:none;stroke-width:1;stroke-linecap:square;stroke-linejoin:round;stroke:rgb(0%,0%,0%);stroke-opacity:1;stroke-miterlimit:4;" d="M 42.589844 42.589844 L 281.207031 42.589844 " transform="matrix(1,0,0,1,0,-0.0000004)"/>
</g>
<clipPath id="clip5">
  <rect width="375" height="248"/>
</clipPath>
<g id="surface16" clip-path="url(#clip5)">
<path style="fill:none;stroke-width:1;stroke-linecap:square;stroke-linejoin:round;stroke:rgb(0%,0%,0%);stroke-opacity:1;stroke-miterlimit:4;" d="M 59.632812 59.632813 L 298.25 59.632813 " transform="matrix(1,0,0,1,0,-0.0000004)"/>
</g>
<clipPath id="clip6">
  <rect width="375" height="248"/>
</clipPath>
<g id="surface19" clip-path="url(#clip6)">
<path style="fill:none;stroke-width:1;stroke-linecap:square;stroke-linejoin:round;stroke:rgb(0%,0%,0%);stroke-opacity:1;stroke-miterlimit:4;" d="M 76.675781 76.675782 L 315.296875 76.675782 " transform="matrix(1,0,0,1,0,-0.0000004)"/>
</g>
<clipPath id="clip7">
  <rect width="375" height="248"/>
</clipPath>
<g id="surface22" clip-path="url(#clip7)">
<path style="fill:none;stroke-width:1;stroke-linecap:square;stroke-linejoin:round;stroke:rgb(0%,0%,0%);stroke-opacity:1;stroke-miterlimit:4;" d="M 93.722656 93.71875 L 332.339844 93.71875 " transform="matrix(1,0,0,1,0,-0.0000004)"/>
</g>
<clipPath id="clip8">
  <rect width="375" height="248"/>
</clipPath>
<g id="surface25" clip-path="url(#clip8)">
<path style="fill:none;stroke-width:1;stroke-linecap:square;stroke-linejoin:round;stroke:rgb(0%,0%,0%);stroke-opacity:1;stroke-miterlimit:4;" d="M 110.765625 110.765625 L 349.382812 110.765625 " transform="matrix(1,0,0,1,0,-0.0000004)"/>
</g>
<clipPath id="clip9">
  <rect width="375" height="248"/>
</clipPath>
<g id="surface28" clip-path="url(#clip9)">
<path style="fill:none;stroke-width:1;stroke-linecap:square;stroke-linejoin:round;stroke:rgb(0%,0%,0%);stroke-opacity:1;stroke-miterlimit:4;" d="M 127.808594 127.808594 L 366.425781 127.808594 " transform="matrix(1,0,0,1,0,-0.0000004)"/>
</g>
<clipPath id="clip10">
  <rect width="375" height="248"/>
</clipPath>
<g id="surface31" clip-path="url(#clip10)">
<path style="fill:none;stroke-width:1;stroke-linecap:square;stroke-linejoin:round;stroke:rgb(0%,0%,0%);stroke-opacity:1;stroke-miterlimit:4;" d="M 8.5 8.5 L 127.808594 127.808594 " transform="matrix(1,0,0,1,0,-0.0000004)"/>
</g>
<clipPath id="clip11">
  <rect width="375" height="248"/>
</clipPath>
<g id="surface34" clip-path="url(#clip11)">
<path style="fill:none;stroke-width:1;stroke-linecap:square;stroke-linejoin:round;stroke:rgb(0%,0%,0%);stroke-opacity:1;stroke-miterlimit:4;" d="M 42.589844 8.5 L 161.898438 127.808594 " transform="matrix(1,0,0,1,0,-0.0000004)"/>
</g>
<clipPath id="clip12">
  <rect width="375" height="248"/>
</clipPath>
<g id="surface37" clip-path="url(#clip12)">
<path style="fill:none;stroke-width:1;stroke-linecap:square;stroke-linejoin:round;stroke:rgb(0%,0%,0%);stroke-opacity:1;stroke-miterlimit:4;" d="M 76.675781 8.5 L 195.984375 127.808594 " transform="matrix(1,0,0,1,0,-0.0000004)"/>
</g>
<clipPath id="clip13">
  <rect width="375" height="248"/>
</clipPath>
<g id="surface40" clip-path="url(#clip13)">
<path style="fill:none;stroke-width:1;stroke-linecap:square;stroke-linejoin:round;stroke:rgb(0%,0%,0%);stroke-opacity:1;stroke-miterlimit:4;" d="M 110.765625 8.5 L 230.074219 127.808594 " transform="matrix(1,0,0,1,0,-0.0000004)"/>
</g>
<clipPath id="clip14">
  <rect width="375" height="248"/>
</clipPath>
<g id="surface43" clip-path="url(#clip14)">
<path style="fill:none;stroke-width:1;stroke-linecap:square;stroke-linejoin:round;stroke:rgb(0%,0%,0%);stroke-opacity:1;stroke-miterlimit:4;" d="M 144.851562 8.5 L 264.160156 127.808594 " transform="matrix(1,0,0,1,0,-0.0000004)"/>
</g>
<clipPath id="clip15">
  <rect width="375" height="248"/>
</clipPath>
<g id="surface46" clip-path="url(#clip15)">
<path style="fill:none;stroke-width:1;stroke-linecap:square;stroke-linejoin:round;stroke:rgb(0%,0%,0%);stroke-opacity:1;stroke-miterlimit:4;" d="M 178.941406 8.5 L 298.25 127.808594 " transform="matrix(1,0,0,1,0,-0.0000004)"/>
</g>
<clipPath id="clip16">
  <path d="M 0 0 L 374.925781 0 L 374.925781 247.117188 L 0 247.117188 Z M 0 0 "/>
</clipPath>
<clipPath id="clip17">
  <rect width="375" height="248"/>
</clipPath>
<g id="surface49" clip-path="url(#clip17)">
<path style="fill:none;stroke-width:1;stroke-linecap:square;stroke-linejoin:round;stroke:rgb(0%,0%,0%);stroke-opacity:1;stroke-miterlimit:4;" d="M 247.117188 8.5 L 366.425781 127.808594 " transform="matrix(1,0,0,1,0,-0.0000004)"/>
</g>
<clipPath id="clip18">
  <path d="M 0 90.359375 L 374.925781 90.359375 L 374.925781 312.957031 L 0 312.957031 Z M 0 90.359375 "/>
</clipPath>
<clipPath id="clip19">
  <rect width="375" height="223"/>
</clipPath>
<g id="surface52" clip-path="url(#clip19)">
<path style="fill:none;stroke-width:1;stroke-linecap:square;stroke-linejoin:round;stroke:rgb(0%,0%,100%);stroke-opacity:1;stroke-miterlimit:4;" d="M 34.664062 138.082032 L 239.191406 138.082032 " transform="matrix(1,0,0,1,0,-90)"/>
</g>
<clipPath id="clip20">
  <rect width="375" height="223"/>
</clipPath>
<g id="surface55" clip-path="url(#clip20)">
<path style="fill:none;stroke-width:1;stroke-linecap:square;stroke-linejoin:round;stroke:rgb(0%,0%,100%);stroke-opacity:1;stroke-miterlimit:4;" d="M 51.707031 155.128907 L 259.078125 155.128907 " transform="matrix(1,0,0,1,0,-90)"/>
</g>
<clipPath id="clip21">
  <rect width="375" height="223"/>
</clipPath>
<g id="surface58" clip-path="url(#clip21)">
<path style="fill:none;stroke-width:1;stroke-linecap:square;stroke-linejoin:round;stroke:rgb(0%,0%,100%);stroke-opacity:1;stroke-miterlimit:4;" d="M 68.75 172.171875 L 278.960938 172.171875 " transform="matrix(1,0,0,1,0,-90)"/>
</g>
<clipPath id="clip22">
  <rect width="375" height="223"/>
</clipPath>
<g id="surface61" clip-path="url(#clip22)">
<path style="fill:none;stroke-width:1;stroke-linecap:square;stroke-linejoin:round;stroke:rgb(0%,0%,100%);stroke-opacity:1;stroke-miterlimit:4;" d="M 85.792969 189.214844 L 298.847656 189.214844 " transform="matrix(1,0,0,1,0,-90)"/>
</g>
<clipPath id="clip23">
  <rect width="375" height="223"/>
</clipPath>
<g id="surface64" clip-path="url(#clip23)">
<path style="fill:none;stroke-width:1;stroke-linecap:square;stroke-linejoin:round;stroke:rgb(0%,0%,100%);stroke-opacity:1;stroke-miterlimit:4;" d="M 102.839844 206.257813 L 318.730469 206.257813 " transform="matrix(1,0,0,1,0,-90)"/>
</g>
<clipPath id="clip24">
  <rect width="375" height="223"/>
</clipPath>
<g id="surface67" clip-path="url(#clip24)">
<path style="fill:none;stroke-width:1;stroke-linecap:square;stroke-linejoin:round;stroke:rgb(0%,0%,100%);stroke-opacity:1;stroke-miterlimit:4;" d="M 119.882812 223.304688 L 338.617188 223.304688 " transform="matrix(1,0,0,1,0,-90)"/>
</g>
<clipPath id="clip25">
  <rect width="375" height="223"/>
</clipPath>
<g id="surface70" clip-path="url(#clip25)">
<path style="fill:none;stroke-width:1;stroke-linecap:square;stroke-linejoin:round;stroke:rgb(0%,0%,100%);stroke-opacity:1;stroke-miterlimit:4;" d="M 136.925781 240.347657 L 358.5 240.347657 " transform="matrix(1,0,0,1,0,-90)"/>
</g>
<clipPath id="clip26">
  <rect width="375" height="223"/>
</clipPath>
<g id="surface73" clip-path="url(#clip26)">
<path style="fill:none;stroke-width:1;stroke-linecap:square;stroke-linejoin:round;stroke:rgb(0%,0%,100%);stroke-opacity:1;stroke-miterlimit:4;" d="M 34.664062 138.082032 L 136.925781 240.347657 " transform="matrix(1,0,0,1,0,-90)"/>
</g>
<clipPath id="clip27">
  <rect width="375" height="223"/>
</clipPath>
<g id="surface76" clip-path="url(#clip27)">
<path style="fill:none;stroke-width:1;stroke-linecap:square;stroke-linejoin:round;stroke:rgb(0%,0%,100%);stroke-opacity:1;stroke-miterlimit:4;" d="M 68.75 138.082032 L 173.855469 240.347657 " transform="matrix(1,0,0,1,0,-90)"/>
</g>
<clipPath id="clip28">
  <rect width="375" height="223"/>
</clipPath>
<g id="surface79" clip-path="url(#clip28)">
<path style="fill:none;stroke-width:1;stroke-linecap:square;stroke-linejoin:round;stroke:rgb(0%,0%,100%);stroke-opacity:1;stroke-miterlimit:4;" d="M 102.839844 138.082032 L 210.785156 240.347657 " transform="matrix(1,0,0,1,0,-90)"/>
</g>
<clipPath id="clip29">
  <rect width="375" height="223"/>
</clipPath>
<g id="surface82" clip-path="url(#clip29)">
<path style="fill:none;stroke-width:1;stroke-linecap:square;stroke-linejoin:round;stroke:rgb(0%,0%,100%);stroke-opacity:1;stroke-miterlimit:4;" d="M 136.925781 138.082032 L 247.714844 240.347657 " transform="matrix(1,0,0,1,0,-90)"/>
</g>
<clipPath id="clip30">
  <rect width="375" height="223"/>
</clipPath>
<g id="surface85" clip-path="url(#clip30)">
<path style="fill:none;stroke-width:1;stroke-linecap:square;stroke-linejoin:round;stroke:rgb(0%,0%,100%);stroke-opacity:1;stroke-miterlimit:4;" d="M 171.015625 138.082032 L 284.644531 240.347657 " transform="matrix(1,0,0,1,0,-90)"/>
</g>
<clipPath id="clip31">
  <rect width="375" height="223"/>
</clipPath>
<g id="surface88" clip-path="url(#clip31)">
<path style="fill:none;stroke-width:1;stroke-linecap:square;stroke-linejoin:round;stroke:rgb(0%,0%,100%);stroke-opacity:1;stroke-miterlimit:4;" d="M 205.101562 138.082032 L 321.574219 240.347657 " transform="matrix(1,0,0,1,0,-90)"/>
</g>
<clipPath id="clip32">
  <rect width="375" height="223"/>
</clipPath>
<g id="surface87" clip-path="url(#clip32)">
<path style="fill:none;stroke-width:1;stroke-linecap:square;stroke-linejoin:round;stroke:rgb(0%,0%,100%);stroke-opacity:1;stroke-miterlimit:4;" d="M 239.191406 138.082032 L 358.5 240.347657 " transform="matrix(1,0,0,1,0,-90)"/>
</g>
</defs>
<g id="surface1">
<g clip-path="url(#clip1)" clip-rule="nonzero">
<use xlink:href="#surface7"/>
<use xlink:href="#surface10"/>
<use xlink:href="#surface13"/>
<use xlink:href="#surface16"/>
<use xlink:href="#surface19"/>
<use xlink:href="#surface22"/>
<use xlink:href="#surface25"/>
<use xlink:href="#surface28"/>
<use xlink:href="#surface31"/>
<use xlink:href="#surface34"/>
<use xlink:href="#surface37"/>
<use xlink:href="#surface40"/>
<use xlink:href="#surface43"/>
<use xlink:href="#surface46"/>
</g>
<path style="fill:none;stroke-width:1;stroke-linecap:square;stroke-linejoin:round;stroke:rgb(0%,0%,0%);stroke-opacity:1;stroke-miterlimit:4;" d="M 213.03125 8.5 L 332.339844 127.808594 "/>
<g clip-path="url(#clip16)" clip-rule="nonzero">
<use xlink:href="#surface49"/>
</g>
<path style="fill-rule:nonzero;fill:rgb(100%,0%,0%);fill-opacity:1;stroke-width:0.500856;stroke-linecap:square;stroke-linejoin:round;stroke:rgb(0%,0%,0%);stroke-opacity:1;stroke-miterlimit:4;" d="M 69.160156 34.160156 L 61.410156 26.398438 L 93.464844 26.398438 L 108.964844 41.921875 L 76.910156 41.921875 Z M 69.160156 34.160156 "/>
<path style="fill-rule:nonzero;fill:rgb(100%,0%,0%);fill-opacity:1;stroke-width:0.500856;stroke-linecap:square;stroke-linejoin:round;stroke:rgb(0%,0%,0%);stroke-opacity:1;stroke-miterlimit:4;" d="M 103.71875 34.160156 L 95.96875 26.398438 L 127.523438 26.398438 L 143.023438 41.921875 L 111.46875 41.921875 Z M 103.71875 34.160156 "/>
<path style="fill-rule:nonzero;fill:rgb(100%,0%,0%);fill-opacity:1;stroke-width:0.500856;stroke-linecap:square;stroke-linejoin:round;stroke:rgb(0%,0%,0%);stroke-opacity:1;stroke-miterlimit:4;" d="M 120.746094 51.191406 L 112.996094 43.425781 L 144.550781 43.425781 L 152.300781 51.191406 L 160.054688 58.953125 L 128.5 58.953125 Z M 120.746094 51.191406 "/>
<path style="fill-rule:nonzero;fill:rgb(100%,100%,0%);fill-opacity:1;stroke-width:0.500856;stroke-linecap:square;stroke-linejoin:round;stroke:rgb(0%,0%,0%);stroke-opacity:1;stroke-miterlimit:4;" d="M 154.804688 51.191406 L 147.054688 43.425781 L 178.609375 43.425781 L 186.359375 51.191406 L 194.109375 58.953125 L 162.558594 58.953125 Z M 154.804688 51.191406 "/>
<path style="fill-rule:nonzero;fill:rgb(100%,100%,0%);fill-opacity:1;stroke-width:0.500856;stroke-linecap:square;stroke-linejoin:round;stroke:rgb(0%,0%,0%);stroke-opacity:1;stroke-miterlimit:4;" d="M 171.835938 68.21875 L 164.085938 60.457031 L 195.636719 60.457031 L 203.390625 68.21875 L 211.140625 75.980469 L 179.585938 75.980469 Z M 171.835938 68.21875 "/>
<path style="fill-rule:nonzero;fill:rgb(100%,0%,0%);fill-opacity:1;stroke-width:0.500856;stroke-linecap:square;stroke-linejoin:round;stroke:rgb(0%,0%,0%);stroke-opacity:1;stroke-miterlimit:4;" d="M 205.894531 68.21875 L 198.140625 60.457031 L 229.695312 60.457031 L 237.449219 68.21875 L 245.199219 75.980469 L 213.644531 75.980469 Z M 205.894531 68.21875 "/>
<path style="fill-rule:nonzero;fill:rgb(100%,0%,0%);fill-opacity:1;stroke-width:0.500856;stroke-linecap:square;stroke-linejoin:round;stroke:rgb(0%,0%,0%);stroke-opacity:1;stroke-miterlimit:4;" d="M 222.921875 85.246094 L 215.171875 77.484375 L 246.726562 77.484375 L 254.476562 85.246094 L 262.226562 93.011719 L 230.671875 93.011719 Z M 222.921875 85.246094 "/>
<path style="fill-rule:nonzero;fill:rgb(0%,100%,0%);fill-opacity:1;stroke-width:0.500856;stroke-linecap:square;stroke-linejoin:round;stroke:rgb(0%,0%,0%);stroke-opacity:1;stroke-miterlimit:4;" d="M 171.835938 34.160156 L 164.085938 26.398438 L 195.636719 26.398438 L 203.390625 34.160156 L 211.140625 41.921875 L 179.585938 41.921875 Z M 171.835938 34.160156 "/>
<path style="fill-rule:nonzero;fill:rgb(0%,100%,0%);fill-opacity:1;stroke-width:0.500856;stroke-linecap:square;stroke-linejoin:round;stroke:rgb(0%,0%,0%);stroke-opacity:1;stroke-miterlimit:4;" d="M 205.894531 34.160156 L 198.140625 26.398438 L 229.695312 26.398438 L 237.449219 34.160156 L 245.199219 41.921875 L 213.644531 41.921875 Z M 205.894531 34.160156 "/>
<path style="fill-rule:nonzero;fill:rgb(0%,100%,0%);fill-opacity:1;stroke-width:0.500856;stroke-linecap:square;stroke-linejoin:round;stroke:rgb(0%,0%,0%);stroke-opacity:1;stroke-miterlimit:4;" d="M 188.863281 51.191406 L 181.113281 43.425781 L 212.667969 43.425781 L 220.417969 51.191406 L 228.167969 58.953125 L 196.617188 58.953125 Z M 188.863281 51.191406 "/>
<path style="fill-rule:nonzero;fill:rgb(0%,100%,0%);fill-opacity:1;stroke-width:0.500856;stroke-linecap:square;stroke-linejoin:round;stroke:rgb(0%,0%,0%);stroke-opacity:1;stroke-miterlimit:4;" d="M 137.777344 68.21875 L 130.027344 60.457031 L 161.578125 60.457031 L 169.332031 68.21875 L 177.082031 75.980469 L 145.527344 75.980469 Z M 137.777344 68.21875 "/>
<path style="fill-rule:nonzero;fill:rgb(0%,100%,0%);fill-opacity:1;stroke-width:0.500856;stroke-linecap:square;stroke-linejoin:round;stroke:rgb(0%,0%,0%);stroke-opacity:1;stroke-miterlimit:4;" d="M 154.804688 85.246094 L 147.054688 77.484375 L 178.609375 77.484375 L 186.359375 85.246094 L 194.109375 93.011719 L 162.558594 93.011719 Z M 154.804688 85.246094 "/>
<path style="fill-rule:nonzero;fill:rgb(0%,100%,0%);fill-opacity:1;stroke-width:0.500856;stroke-linecap:square;stroke-linejoin:round;stroke:rgb(0%,0%,0%);stroke-opacity:1;stroke-miterlimit:4;" d="M 120.246094 85.246094 L 112.496094 77.484375 L 144.550781 77.484375 L 152.300781 85.246094 L 160.054688 93.011719 L 128 93.011719 Z M 120.246094 85.246094 "/>
<g clip-path="url(#clip18)" clip-rule="nonzero">
<use xlink:href="#surface52" transform="matrix(1,0,0,1,0,90)"/>
<use xlink:href="#surface55" transform="matrix(1,0,0,1,0,90)"/>
<use xlink:href="#surface58" transform="matrix(1,0,0,1,0,90)"/>
<use xlink:href="#surface61" transform="matrix(1,0,0,1,0,90)"/>
<use xlink:href="#surface64" transform="matrix(1,0,0,1,0,90)"/>
<use xlink:href="#surface67" transform="matrix(1,0,0,1,0,90)"/>
<use xlink:href="#surface70" transform="matrix(1,0,0,1,0,90)"/>
<use xlink:href="#surface73" transform="matrix(1,0,0,1,0,90)"/>
<use xlink:href="#surface76" transform="matrix(1,0,0,1,0,90)"/>
<use xlink:href="#surface79" transform="matrix(1,0,0,1,0,90)"/>
<use xlink:href="#surface82" transform="matrix(1,0,0,1,0,90)"/>
<use xlink:href="#surface85" transform="matrix(1,0,0,1,0,90)"/>
<use xlink:href="#surface88" transform="matrix(1,0,0,1,0,90)"/>
<use xlink:href="#surface87" transform="matrix(1,0,0,1,0,90)"/>
</g>
<path style="fill:none;stroke-width:0.8;stroke-linecap:butt;stroke-linejoin:miter;stroke:rgb(0%,0%,0%);stroke-opacity:1;stroke-dasharray:0.8,2.4;stroke-miterlimit:4;" d="M 34.304688 16.421875 L 35.808594 137.628906 "/>
<path style="fill:none;stroke-width:0.800317;stroke-linecap:butt;stroke-linejoin:miter;stroke:rgb(0%,0%,0%);stroke-opacity:1;stroke-dasharray:0.800317,1.600634;stroke-miterlimit:4;" d="M 242.765625 16.921875 L 239.84375 137.222656 "/>
<path style="fill:none;stroke-width:0.8;stroke-linecap:butt;stroke-linejoin:miter;stroke:rgb(0%,0%,0%);stroke-opacity:1;stroke-dasharray:0.8,2.4;stroke-miterlimit:4;" d="M 136.421875 118.757812 L 137.925781 239.964844 "/>
<path style="fill:none;stroke-width:0.800317;stroke-linecap:butt;stroke-linejoin:miter;stroke:rgb(0%,0%,0%);stroke-opacity:1;stroke-dasharray:0.800317,1.600634;stroke-miterlimit:4;" d="M 342.273438 117.792969 L 339.351562 238.09375 "/>
<path style="fill-rule:nonzero;fill:rgb(100%,0%,0%);fill-opacity:1;stroke-width:0.8;stroke-linecap:square;stroke-linejoin:round;stroke:rgb(0%,0%,0%);stroke-opacity:1;stroke-miterlimit:4;" d="M 91.488281 155.101562 C 91.488281 156.371094 89.742188 157.402344 87.589844 157.402344 C 85.4375 157.402344 83.695312 156.371094 83.695312 155.101562 C 83.695312 153.828125 85.4375 152.796875 87.589844 152.796875 C 89.726562 152.796875 91.464844 153.8125 91.488281 155.074219 "/>
<path style="fill-rule:nonzero;fill:rgb(100%,0%,0%);fill-opacity:1;stroke-width:0.8;stroke-linecap:square;stroke-linejoin:round;stroke:rgb(0%,0%,0%);stroke-opacity:1;stroke-miterlimit:4;" d="M 125.132812 154.921875 C 125.132812 156.195312 123.386719 157.226562 121.234375 157.226562 C 119.085938 157.226562 117.339844 156.195312 117.339844 154.921875 C 117.339844 153.652344 119.085938 152.621094 121.234375 152.621094 C 123.371094 152.621094 125.109375 153.636719 125.132812 154.898438 "/>
<path style="fill-rule:nonzero;fill:rgb(100%,0%,0%);fill-opacity:1;stroke-width:0.8;stroke-linecap:square;stroke-linejoin:round;stroke:rgb(0%,0%,0%);stroke-opacity:1;stroke-miterlimit:4;" d="M 142.484375 172.632812 C 142.484375 173.902344 140.742188 174.933594 138.589844 174.933594 C 136.4375 174.933594 134.695312 173.902344 134.695312 172.632812 C 134.695312 171.359375 136.4375 170.328125 138.589844 170.328125 C 140.726562 170.328125 142.460938 171.34375 142.484375 172.605469 "/>
<path style="fill-rule:nonzero;fill:rgb(100%,100%,0%);fill-opacity:1;stroke-width:0.8;stroke-linecap:square;stroke-linejoin:round;stroke:rgb(0%,0%,0%);stroke-opacity:1;stroke-miterlimit:4;" d="M 176.484375 171.570312 C 176.484375 172.839844 174.742188 173.871094 172.589844 173.871094 C 170.4375 173.871094 168.691406 172.839844 168.691406 171.570312 C 168.691406 170.296875 170.4375 169.265625 172.589844 169.265625 C 174.722656 169.265625 176.460938 170.28125 176.484375 171.542969 "/>
<path style="fill-rule:nonzero;fill:rgb(100%,100%,0%);fill-opacity:1;stroke-width:0.8;stroke-linecap:square;stroke-linejoin:round;stroke:rgb(0%,0%,0%);stroke-opacity:1;stroke-miterlimit:4;" d="M 193.128906 188.570312 C 193.128906 189.839844 191.386719 190.871094 189.234375 190.871094 C 187.082031 190.871094 185.339844 189.839844 185.339844 188.570312 C 185.339844 187.296875 187.082031 186.265625 189.234375 186.265625 C 191.371094 186.265625 193.105469 187.28125 193.128906 188.542969 "/>
<path style="fill-rule:nonzero;fill:rgb(100%,0%,0%);fill-opacity:1;stroke-width:0.8;stroke-linecap:square;stroke-linejoin:round;stroke:rgb(0%,0%,0%);stroke-opacity:1;stroke-miterlimit:4;" d="M 231.40625 189.421875 C 231.40625 190.691406 229.660156 191.722656 227.511719 191.722656 C 225.359375 191.722656 223.613281 190.691406 223.613281 189.421875 C 223.613281 188.148438 225.359375 187.121094 227.511719 187.121094 C 229.644531 187.121094 231.382812 188.136719 231.40625 189.398438 "/>
<path style="fill-rule:nonzero;fill:rgb(100%,0%,0%);fill-opacity:1;stroke-width:0.8;stroke-linecap:square;stroke-linejoin:round;stroke:rgb(0%,0%,0%);stroke-opacity:1;stroke-miterlimit:4;" d="M 249.386719 206.359375 C 249.386719 207.632812 247.640625 208.664062 245.492188 208.664062 C 243.339844 208.664062 241.59375 207.632812 241.59375 206.359375 C 241.59375 205.089844 243.339844 204.058594 245.492188 204.058594 C 247.625 204.058594 249.363281 205.074219 249.386719 206.335938 "/>
<path style="fill-rule:nonzero;fill:rgb(0%,100%,0%);fill-opacity:1;stroke-width:0.8;stroke-linecap:square;stroke-linejoin:round;stroke:rgb(0%,0%,0%);stroke-opacity:1;stroke-miterlimit:4;" d="M 228.191406 155.277344 C 228.191406 156.550781 226.449219 157.578125 224.296875 157.578125 C 222.144531 157.578125 220.398438 156.550781 220.398438 155.277344 C 220.398438 154.007812 222.144531 152.976562 224.296875 152.976562 C 226.429688 152.976562 228.167969 153.992188 228.191406 155.253906 "/>
<path style="fill-rule:nonzero;fill:rgb(0%,100%,0%);fill-opacity:1;stroke-width:0.8;stroke-linecap:square;stroke-linejoin:round;stroke:rgb(0%,0%,0%);stroke-opacity:1;stroke-miterlimit:4;" d="M 193.839844 155.277344 C 193.839844 156.550781 192.09375 157.578125 189.941406 157.578125 C 187.792969 157.578125 186.046875 156.550781 186.046875 155.277344 C 186.046875 154.007812 187.792969 152.976562 189.941406 152.976562 C 192.078125 152.976562 193.816406 153.992188 193.839844 155.253906 "/>
<path style="fill-rule:nonzero;fill:rgb(0%,100%,0%);fill-opacity:1;stroke-width:0.8;stroke-linecap:square;stroke-linejoin:round;stroke:rgb(0%,0%,0%);stroke-opacity:1;stroke-miterlimit:4;" d="M 210.484375 171.570312 C 210.484375 172.839844 208.738281 173.871094 206.589844 173.871094 C 204.4375 173.871094 202.691406 172.839844 202.691406 171.570312 C 202.691406 170.296875 204.4375 169.265625 206.589844 169.265625 C 208.722656 169.265625 210.460938 170.28125 210.484375 171.542969 "/>
<path style="fill-rule:nonzero;fill:rgb(0%,100%,0%);fill-opacity:1;stroke-width:0.8;stroke-linecap:square;stroke-linejoin:round;stroke:rgb(0%,0%,0%);stroke-opacity:1;stroke-miterlimit:4;" d="M 159.839844 189.632812 C 159.839844 190.902344 158.09375 191.933594 155.945312 191.933594 C 153.792969 191.933594 152.046875 190.902344 152.046875 189.632812 C 152.046875 188.359375 153.792969 187.328125 155.945312 187.328125 C 158.078125 187.328125 159.816406 188.34375 159.839844 189.605469 "/>
<path style="fill-rule:nonzero;fill:rgb(0%,100%,0%);fill-opacity:1;stroke-width:0.8;stroke-linecap:square;stroke-linejoin:round;stroke:rgb(0%,0%,0%);stroke-opacity:1;stroke-miterlimit:4;" d="M 177.191406 206.277344 C 177.191406 207.546875 175.449219 208.578125 173.296875 208.578125 C 171.144531 208.578125 169.402344 207.546875 169.402344 206.277344 C 169.402344 205.003906 171.144531 203.972656 173.296875 203.972656 C 175.433594 203.972656 177.167969 204.988281 177.191406 206.25 "/>
<path style="fill-rule:nonzero;fill:rgb(0%,100%,0%);fill-opacity:1;stroke-width:0.8;stroke-linecap:square;stroke-linejoin:round;stroke:rgb(0%,0%,0%);stroke-opacity:1;stroke-miterlimit:4;" d="M 142.132812 205.921875 C 142.132812 207.195312 140.386719 208.222656 138.234375 208.222656 C 136.082031 208.222656 134.339844 207.195312 134.339844 205.921875 C 134.339844 204.652344 136.082031 203.621094 138.234375 203.621094 C 140.371094 203.621094 142.109375 204.636719 142.132812 205.898438 "/>
</g>
</svg>
