<?xml version="1.0" encoding="UTF-8" standalone="no"?>
<!-- Created with Inkscape (http://www.inkscape.org/) -->

<svg
   xmlns:dc="http://purl.org/dc/elements/1.1/"
   xmlns:cc="http://creativecommons.org/ns#"
   xmlns:rdf="http://www.w3.org/1999/02/22-rdf-syntax-ns#"
   xmlns:svg="http://www.w3.org/2000/svg"
   xmlns="http://www.w3.org/2000/svg"
   xmlns:sodipodi="http://sodipodi.sourceforge.net/DTD/sodipodi-0.dtd"
   xmlns:inkscape="http://www.inkscape.org/namespaces/inkscape"
   width="42.507755mm"
   height="28.538631mm"
   viewBox="0 0 150.61803 101.12114"
   id="svg3393"
   version="1.1"
   inkscape:version="0.91 r13725"
   sodipodi:docname="step-FSM.svg">
  <sodipodi:namedview
     id="base"
     pagecolor="#ffffff"
     bordercolor="#666666"
     borderopacity="1.0"
     inkscape:pageopacity="0.0"
     inkscape:pageshadow="2"
     inkscape:zoom="5.6"
     inkscape:cx="75.529599"
     inkscape:cy="22.811334"
     inkscape:document-units="px"
     inkscape:current-layer="layer1"
     showgrid="false"
     inkscape:window-width="1148"
     inkscape:window-height="1041"
     inkscape:window-x="768"
     inkscape:window-y="37"
     inkscape:window-maximized="0"
     fit-margin-top="0"
     fit-margin-left="0"
     fit-margin-right="0"
     fit-margin-bottom="0" />
  <defs
     id="defs3395">
    <inkscape:path-effect
       is_visible="true"
       id="path-effect5274"
       effect="spiro" />
    <inkscape:path-effect
       is_visible="true"
       id="path-effect5031"
       effect="spiro" />
    <marker
       inkscape:stockid="Arrow1Mend"
       orient="auto"
       refY="0"
       refX="0"
       id="marker4985"
       style="overflow:visible"
       inkscape:isstock="true">
      <path
         inkscape:connector-curvature="0"
         id="path4987"
         d="M 0,0 5,-5 -12.5,0 5,5 0,0 Z"
         style="fill:#0000ff;fill-opacity:1;fill-rule:evenodd;stroke:#0000ff;stroke-width:1pt;stroke-opacity:1"
         transform="matrix(-0.4,0,0,-0.4,-4,0)" />
    </marker>
    <inkscape:path-effect
       is_visible="true"
       id="path-effect4977"
       effect="spiro" />
    <marker
       inkscape:collect="always"
       inkscape:isstock="true"
       style="overflow:visible"
       id="marker4947"
       refX="0"
       refY="0"
       orient="auto"
       inkscape:stockid="Arrow1Mend">
      <path
         inkscape:connector-curvature="0"
         transform="matrix(-0.4,0,0,-0.4,-4,0)"
         style="fill:#000000;fill-opacity:1;fill-rule:evenodd;stroke:#000000;stroke-width:1pt;stroke-opacity:1"
         d="M 0,0 5,-5 -12.5,0 5,5 0,0 Z"
         id="path4949" />
    </marker>
    <marker
       inkscape:isstock="true"
       style="overflow:visible"
       id="Arrow1Mend"
       refX="0"
       refY="0"
       orient="auto"
       inkscape:stockid="Arrow1Mend">
      <path
         inkscape:connector-curvature="0"
         transform="matrix(-0.4,0,0,-0.4,-4,0)"
         style="fill:#000000;fill-opacity:1;fill-rule:evenodd;stroke:#000000;stroke-width:1pt;stroke-opacity:1"
         d="M 0,0 5,-5 -12.5,0 5,5 0,0 Z"
         id="path4680" />
    </marker>
  </defs>
  <metadata
     id="metadata3398">
    <rdf:RDF>
      <cc:Work
         rdf:about="">
        <dc:format>image/svg+xml</dc:format>
        <dc:type
           rdf:resource="http://purl.org/dc/dcmitype/StillImage" />
        <dc:title></dc:title>
      </cc:Work>
    </rdf:RDF>
  </metadata>
  <g
     transform="translate(10.136588,-930.66647)"
     id="layer1"
     inkscape:groupmode="layer"
     inkscape:label="Layer 1">
    <path
       sodipodi:nodetypes="cc"
       inkscape:connector-curvature="0"
       id="path3865"
       d="m 8.5714283,990.57648 130.0000017,0"
       style="opacity:1;fill:none;fill-opacity:1;stroke:#000000;stroke-width:1;stroke-linecap:round;stroke-miterlimit:4;stroke-dasharray:none;stroke-dashoffset:0;marker-end:url(#marker4947)" />
    <path
       sodipodi:nodetypes="cc"
       inkscape:connector-curvature="0"
       id="path3863"
       d="m 8.5714283,990.57648 0,-58"
       style="opacity:1;fill:none;fill-opacity:1;stroke:#000000;stroke-width:1;stroke-linecap:round;stroke-miterlimit:4;stroke-dasharray:none;stroke-dashoffset:0;marker-end:url(#Arrow1Mend)" />
    <g
       transform="translate(0,-3.5355339)"
       id="g3500">
      <g
         id="g3446"
         inkscape:label="Grid_Polar:X13:Y1"
         transform="translate(9.0402722,1012.7142)">
        <g
           id="g3448"
           inkscape:label="MajorXGridlines">
          <path
             id="path3450"
             inkscape:label="MajorXDiv1"
             style="fill:none;stroke:#000000;stroke-width:1"
             d="m 10,0 0,10"
             inkscape:connector-curvature="0" />
          <path
             id="path3452"
             inkscape:label="MajorXDiv2"
             style="fill:none;stroke:#000000;stroke-width:1"
             d="m 20,0 0,10"
             inkscape:connector-curvature="0" />
          <path
             id="path3454"
             inkscape:label="MajorXDiv3"
             style="fill:none;stroke:#000000;stroke-width:1"
             d="m 30,0 0,10"
             inkscape:connector-curvature="0" />
          <path
             id="path3456"
             inkscape:label="MajorXDiv4"
             style="fill:none;stroke:#000000;stroke-width:1"
             d="m 40,0 0,10"
             inkscape:connector-curvature="0" />
          <path
             id="path3458"
             inkscape:label="MajorXDiv5"
             style="fill:none;stroke:#000000;stroke-width:1"
             d="m 50,0 0,10"
             inkscape:connector-curvature="0" />
          <path
             id="path3460"
             inkscape:label="MajorXDiv6"
             style="fill:none;stroke:#000000;stroke-width:1"
             d="m 60,0 0,10"
             inkscape:connector-curvature="0" />
          <path
             id="path3462"
             inkscape:label="MajorXDiv7"
             style="fill:none;stroke:#000000;stroke-width:1"
             d="m 70,0 0,10"
             inkscape:connector-curvature="0" />
          <path
             id="path3464"
             inkscape:label="MajorXDiv8"
             style="fill:none;stroke:#000000;stroke-width:1"
             d="m 80,0 0,10"
             inkscape:connector-curvature="0" />
          <path
             id="path3466"
             inkscape:label="MajorXDiv9"
             style="fill:none;stroke:#000000;stroke-width:1"
             d="m 90,0 0,10"
             inkscape:connector-curvature="0" />
          <path
             id="path3468"
             inkscape:label="MajorXDiv10"
             style="fill:none;stroke:#000000;stroke-width:1"
             d="m 100,0 0,10"
             inkscape:connector-curvature="0" />
          <path
             id="path3470"
             inkscape:label="MajorXDiv11"
             style="fill:none;stroke:#000000;stroke-width:1"
             d="m 110,0 0,10"
             inkscape:connector-curvature="0" />
          <path
             id="path3472"
             inkscape:label="MajorXDiv12"
             style="fill:none;stroke:#000000;stroke-width:1"
             d="m 120,0 0,10"
             inkscape:connector-curvature="0" />
        </g>
        <g
           id="g3474"
           inkscape:label="MajorYGridlines" />
        <rect
           id="rect3476"
           inkscape:label="Border"
           y="0"
           x="0"
           width="130"
           style="fill:none;stroke:#000000;stroke-width:1"
           height="10" />
      </g>
      <rect
         style="opacity:1;fill:#000000;fill-opacity:1;stroke:none;stroke-width:1;stroke-linecap:round;stroke-miterlimit:4;stroke-dasharray:none;stroke-dashoffset:0"
         id="rect3498"
         width="9.8489876"
         height="10.227795"
         x="68.970207"
         y="1012.5874" />
    </g>
    <g
       transform="matrix(0.22119458,0,0,0.22119458,0.83019197,951.28545)"
       id="g3543">
      <g
         style="font-style:normal;font-variant:normal;font-weight:normal;font-stretch:normal;letter-spacing:normal;word-spacing:normal;text-anchor:start;fill:none;fill-opacity:1;fill-rule:evenodd;stroke:#000000;stroke-linecap:butt;stroke-linejoin:miter;stroke-miterlimit:10.43299961;stroke-dasharray:none;stroke-dashoffset:0;stroke-opacity:1"
         word-spacing="normal"
         letter-spacing="normal"
         font-size-adjust="none"
         font-stretch="normal"
         font-weight="normal"
         font-variant="normal"
         font-style="normal"
         stroke-miterlimit="10.433"
         xml:space="preserve"
         transform="matrix(1.0629921,0,0,-1.0629921,-186.02362,789.27165)"
         id="content"><path
           style="fill:#000000;stroke-width:0"
           inkscape:connector-curvature="0"
           id="path3546"
           d="m 472.75,418.45 5.83,6.48 c 0.66,0.71 0.96,1.05 5.1,1.05 l 0,2.34 c -1.75,-0.11 -4.35,-0.15 -4.6,-0.15 -1.25,0 -3.73,0.11 -5.12,0.15 l 0,-2.34 c 0.68,0 1.29,-0.11 1.89,-0.45 -0.21,-0.3 -0.21,-0.39 -0.41,-0.6 l -4.17,-4.68 -4.89,5.73 2,0 0,2.34 c -1.3,-0.04 -4.44,-0.15 -6.03,-0.15 -1.6,0 -3.85,0.11 -5.49,0.15 l 0,-2.34 3.53,0 7.79,-9.17 -6.54,-7.33 c -0.84,-0.94 -2.64,-0.94 -5.03,-0.94 l 0,-2.34 c 1.75,0.09 4.35,0.16 4.58,0.16 1.25,0 4.14,-0.11 5.14,-0.16 l 0,2.34 c -0.89,0 -1.84,0.25 -1.84,0.55 0,0.05 0,0.09 0.34,0.5 l 4.85,5.42 5.46,-6.47 -1.93,0 0,-2.34 c 1.29,0.05 4.33,0.16 5.98,0.16 1.6,0 3.83,-0.11 5.47,-0.16 l 0,2.34 -3.53,0 z" /><path
           style="fill:#000000;stroke-width:0"
           inkscape:connector-curvature="0"
           id="path3548"
           d="m 499.95,437.96 3.41,0 c 0.7,0 1.15,0 1.15,0.77 0,0.48 -0.45,0.48 -1.08,0.48 l -3.25,0 c 0.82,4.43 1.08,6.04 1.36,7.05 0.17,0.77 0.94,1.5 1.78,1.5 0.04,0 0.97,0 1.64,-0.42 -1.43,-0.45 -1.53,-1.72 -1.53,-1.92 0,-0.77 0.6,-1.28 1.39,-1.28 0.94,0 1.99,0.79 1.99,2.12 0,1.6 -1.7,2.47 -3.49,2.47 -1.53,0 -3.23,-0.87 -4.18,-2.61 -0.69,-1.3 -0.97,-2.86 -1.71,-6.91 l -2.75,0 c -0.7,0 -1.15,0 -1.15,-0.76 0,-0.49 0.45,-0.49 1.08,-0.49 l 2.57,0 c -0.03,-0.21 -2.22,-12.75 -3.06,-16.48 -0.17,-0.77 -0.76,-3.41 -2.44,-3.41 -0.03,0 -0.87,0 -1.53,0.41 1.42,0.45 1.53,1.72 1.53,1.92 0,0.77 -0.59,1.28 -1.39,1.28 -0.93,0 -1.98,-0.79 -1.98,-2.12 0,-1.56 1.64,-2.47 3.37,-2.47 2.24,0 3.77,2.3 4.19,3.06 1.25,2.35 2.05,6.63 2.13,7.05 z" /></g>    </g>
    <g
       transform="matrix(0,-0.1648109,0.1648109,0,-55.24251,1031.353)"
       id="g3604">
      <g
         style="font-style:normal;font-variant:normal;font-weight:normal;font-stretch:normal;letter-spacing:normal;word-spacing:normal;text-anchor:start;fill:none;fill-opacity:1;fill-rule:evenodd;stroke:#000000;stroke-linecap:butt;stroke-linejoin:miter;stroke-miterlimit:10.43299961;stroke-dasharray:none;stroke-dashoffset:0;stroke-opacity:1"
         id="g3606"
         transform="matrix(1.0629921,0,0,-1.0629921,-186.02362,789.27165)"
         xml:space="preserve"
         stroke-miterlimit="10.433"
         font-style="normal"
         font-variant="normal"
         font-weight="normal"
         font-stretch="normal"
         font-size-adjust="none"
         letter-spacing="normal"
         word-spacing="normal"><path
           style="fill:#000000;stroke-width:0"
           inkscape:connector-curvature="0"
           d="m 470.61,421.95 0.21,1.28 3.39,13.56 c 0.43,1.74 0.54,1.89 2.68,1.89 l 4.79,0 c 4.14,0 6.78,-1.34 6.78,-4.78 0,-1.95 -1,-6.23 -2.94,-8.03 -2.5,-2.23 -5.48,-2.64 -7.69,-2.64 l -7.01,0 -0.21,-1.28 8.47,0 c 7.08,0 14,5.17 14,10.75 0,3.84 -3.28,7.53 -9.81,7.53 l -16.14,0 c -0.95,0 -1.5,0 -1.5,-0.95 0,-0.6 0.45,-0.6 1.45,-0.6 0.64,0 1.55,-0.04 2.14,-0.09 0.8,-0.11 1.1,-0.25 1.1,-0.8 0,-0.2 -0.05,-0.36 -0.21,-0.95 l -6.67,-26.75 c -0.5,-1.95 -0.59,-2.34 -4.53,-2.34 -0.84,0 -1.39,0 -1.39,-0.96 0,-0.59 0.59,-0.59 0.73,-0.59 1.41,0 4.94,0.16 6.33,0.16 1.05,0 2.14,-0.07 3.19,-0.07 1.11,0 2.2,-0.09 3.25,-0.09 0.34,0 0.98,0 0.98,1 0,0.55 -0.43,0.55 -1.39,0.55 -1.84,0 -3.23,0 -3.23,0.89 0,0.29 0.09,0.54 0.14,0.84 z"
           id="path3608" /><path
           style="fill:#000000;stroke-width:0"
           inkscape:connector-curvature="0"
           d="m 511,394.25 0,0.02 0,0.03 0,0.01 0,0.02 0,0.01 -0.01,0.02 0,0.01 -0.01,0.02 -0.01,0.02 -0.01,0.02 -0.01,0.02 -0.02,0.03 -0.01,0.02 -0.02,0.03 -0.02,0.03 -0.03,0.03 -0.02,0.03 -0.03,0.04 -0.02,0.02 -0.01,0.02 -0.02,0.02 -0.02,0.02 -0.02,0.02 -0.02,0.03 -0.02,0.02 -0.02,0.02 -0.02,0.03 -0.03,0.02 -0.02,0.03 -0.03,0.03 -0.03,0.03 -0.02,0.03 -0.03,0.03 -0.03,0.03 -0.03,0.03 -0.03,0.03 -0.04,0.04 -0.03,0.03 -0.04,0.04 -0.03,0.03 -0.04,0.04 -0.04,0.04 c -6.22,6.28 -7.81,15.69 -7.81,23.31 0,8.67 1.89,17.35 8.01,23.56 0.64,0.61 0.64,0.71 0.64,0.86 0,0.35 -0.18,0.49 -0.48,0.49 -0.5,0 -4.98,-3.38 -7.92,-9.7 -2.55,-5.49 -3.14,-11.02 -3.14,-15.21 0,-3.89 0.54,-9.9 3.28,-15.54 2.98,-6.13 7.28,-9.36 7.78,-9.36 0.3,0 0.48,0.14 0.48,0.5 z"
           id="path3610" /><path
           style="fill:#000000;stroke-width:0"
           inkscape:connector-curvature="0"
           d="m 520.46,410.34 0.25,0.27 0.24,0.25 0.24,0.25 0.22,0.24 0.23,0.23 0.21,0.22 0.21,0.22 0.21,0.21 0.2,0.2 0.2,0.19 0.19,0.19 0.19,0.19 0.18,0.17 0.18,0.18 0.35,0.33 0.35,0.32 0.33,0.3 0.33,0.29 0.32,0.29 0.65,0.56 0.32,0.29 0.34,0.28 c 0,0.05 3.08,2.69 4.87,4.49 4.74,4.64 5.83,7.03 5.83,7.21 0,0.5 -0.45,0.5 -0.55,0.5 -0.34,0 -0.5,-0.09 -0.75,-0.54 -1.48,-2.39 -2.53,-3.19 -3.73,-3.19 -1.2,0 -1.8,0.75 -2.55,1.59 -0.93,1.16 -1.78,2.14 -3.43,2.14 -3.74,0 -6.02,-4.62 -6.02,-5.67 0,-0.25 0.14,-0.54 0.59,-0.54 0.46,0 0.55,0.25 0.64,0.54 0.96,2.3 3.85,2.35 4.24,2.35 1.05,0 2,-0.36 3.14,-0.75 2,-0.75 2.55,-0.75 3.84,-0.75 -1.79,-2.14 -5.98,-5.74 -6.92,-6.53 l -4.48,-4.18 c -3.39,-3.34 -5.14,-6.18 -5.14,-6.53 0,-0.5 0.5,-0.5 0.59,-0.5 0.41,0 0.5,0.1 0.8,0.64 1.15,1.75 2.64,3.1 4.23,3.1 1.16,0 1.66,-0.46 2.89,-1.89 0.86,-1.05 1.75,-1.85 3.19,-1.85 4.94,0 7.83,6.33 7.83,7.67 0,0.25 -0.21,0.5 -0.6,0.5 -0.45,0 -0.54,-0.29 -0.7,-0.65 -1.14,-3.24 -4.33,-4.17 -5.98,-4.17 -0.99,0 -1.89,0.29 -2.94,0.64 -1.69,0.64 -2.44,0.84 -3.49,0.84 -0.09,0 -0.89,0 -1.34,-0.14 z"
           id="path3612" /><path
           style="fill:#000000;stroke-width:0"
           inkscape:connector-curvature="0"
           d="m 551.19,412.53 3.4,0 c 0.71,0 1.16,0 1.16,0.76 0,0.49 -0.45,0.49 -1.08,0.49 l -3.25,0 c 0.81,4.42 1.08,6.03 1.36,7.04 0.17,0.77 0.94,1.5 1.78,1.5 0.03,0 0.97,0 1.64,-0.42 -1.43,-0.45 -1.53,-1.72 -1.53,-1.92 0,-0.77 0.6,-1.28 1.39,-1.28 0.94,0 1.99,0.8 1.99,2.12 0,1.6 -1.71,2.47 -3.49,2.47 -1.53,0 -3.23,-0.87 -4.18,-2.61 -0.69,-1.29 -0.97,-2.86 -1.71,-6.9 l -2.75,0 c -0.7,0 -1.15,0 -1.15,-0.77 0,-0.48 0.45,-0.48 1.07,-0.48 l 2.58,0 c -0.03,-0.22 -2.22,-12.75 -3.06,-16.49 -0.17,-0.76 -0.77,-3.4 -2.44,-3.4 -0.03,0 -0.87,0 -1.53,0.4 1.42,0.46 1.53,1.72 1.53,1.92 0,0.77 -0.59,1.29 -1.39,1.29 -0.94,0 -1.98,-0.8 -1.98,-2.13 0,-1.56 1.64,-2.47 3.37,-2.47 2.24,0 3.77,2.3 4.19,3.06 1.25,2.35 2.05,6.63 2.12,7.05 z"
           id="path3614" /><path
           style="fill:#000000;stroke-width:0"
           inkscape:connector-curvature="0"
           d="m 570.72,441.78 0,0.16 0,0.17 0,0.16 -0.01,0.08 0,0.08 -0.01,0.08 -0.01,0.08 -0.01,0.07 -0.01,0.07 -0.01,0.07 -0.02,0.07 -0.02,0.07 -0.02,0.06 -0.03,0.06 -0.02,0.06 -0.04,0.06 -0.03,0.05 -0.04,0.05 -0.04,0.05 -0.05,0.04 -0.05,0.04 -0.03,0.01 -0.02,0.02 -0.03,0.02 -0.03,0.01 -0.03,0.01 -0.04,0.02 -0.03,0.01 -0.04,0.01 -0.03,0.01 -0.04,0.01 -0.04,0 -0.04,0.01 -0.04,0 -0.05,0.01 -0.04,0 -0.05,0 c -1,0 -1,-0.89 -1,-1.78 l 0,-46.24 c 0,-0.9 0,-1.79 1,-1.79 1,0 1,0.89 1,1.79 z"
           id="path3616" /><path
           style="fill:#000000;stroke-width:0"
           inkscape:connector-curvature="0"
           d="m 593.83,418.45 5.83,6.48 c 0.66,0.71 0.95,1.05 5.09,1.05 l 0,2.34 c -1.75,-0.11 -4.34,-0.15 -4.59,-0.15 -1.25,0 -3.73,0.11 -5.13,0.15 l 0,-2.34 c 0.69,0 1.3,-0.11 1.9,-0.45 -0.21,-0.3 -0.21,-0.39 -0.41,-0.6 l -4.17,-4.68 -4.89,5.73 2,0 0,2.34 c -1.3,-0.04 -4.44,-0.15 -6.03,-0.15 -1.6,0 -3.85,0.11 -5.49,0.15 l 0,-2.34 3.53,0 7.78,-9.17 -6.53,-7.33 c -0.84,-0.94 -2.64,-0.94 -5.03,-0.94 l 0,-2.34 c 1.75,0.09 4.34,0.16 4.58,0.16 1.25,0 4.14,-0.11 5.14,-0.16 l 0,2.34 c -0.89,0 -1.84,0.25 -1.84,0.55 0,0.05 0,0.09 0.34,0.5 l 4.84,5.42 5.47,-6.47 -1.94,0 0,-2.34 c 1.3,0.05 4.33,0.16 5.99,0.16 1.59,0 3.83,-0.11 5.47,-0.16 l 0,2.34 -3.53,0 z"
           id="path3618" /><path
           style="fill:#000000;stroke-width:0"
           inkscape:connector-curvature="0"
           d="m 621.03,437.96 3.4,0 c 0.71,0 1.16,0 1.16,0.77 0,0.48 -0.45,0.48 -1.08,0.48 l -3.25,0 c 0.81,4.43 1.08,6.04 1.36,7.05 0.17,0.77 0.94,1.5 1.78,1.5 0.03,0 0.97,0 1.64,-0.42 -1.44,-0.45 -1.53,-1.72 -1.53,-1.92 0,-0.77 0.59,-1.28 1.39,-1.28 0.94,0 1.99,0.79 1.99,2.12 0,1.6 -1.71,2.47 -3.49,2.47 -1.53,0 -3.23,-0.87 -4.18,-2.61 -0.69,-1.3 -0.97,-2.86 -1.71,-6.91 l -2.75,0 c -0.7,0 -1.16,0 -1.16,-0.76 0,-0.49 0.46,-0.49 1.08,-0.49 l 2.58,0 c -0.03,-0.21 -2.22,-12.75 -3.06,-16.48 -0.17,-0.77 -0.77,-3.41 -2.44,-3.41 -0.03,0 -0.87,0 -1.53,0.41 1.42,0.45 1.53,1.72 1.53,1.92 0,0.77 -0.59,1.28 -1.39,1.28 -0.94,0 -1.98,-0.79 -1.98,-2.12 0,-1.56 1.64,-2.47 3.37,-2.47 2.24,0 3.77,2.3 4.19,3.06 1.25,2.35 2.05,6.63 2.12,7.05 z"
           id="path3620" /><path
           style="fill:#000000;stroke-width:0"
           inkscape:connector-curvature="0"
           d="m 642.87,406.25 0,0.3 -0.01,0.3 -0.02,0.29 -0.03,0.28 -0.03,0.27 -0.04,0.26 -0.04,0.26 -0.05,0.24 -0.06,0.24 -0.06,0.23 -0.08,0.22 -0.07,0.21 -0.09,0.2 -0.08,0.19 -0.1,0.19 -0.1,0.17 -0.11,0.16 -0.11,0.16 -0.12,0.14 -0.12,0.13 -0.13,0.13 -0.13,0.11 -0.14,0.1 -0.14,0.1 -0.15,0.08 -0.16,0.07 -0.16,0.06 -0.16,0.05 -0.17,0.04 -0.17,0.03 -0.18,0.01 -0.18,0.01 c -1.64,0 -2.64,-1.25 -2.64,-2.64 0,-1.34 1,-2.64 2.64,-2.64 0.6,0 1.25,0.2 1.75,0.64 0.14,0.11 0.21,0.16 0.25,0.16 0.05,0 0.1,-0.05 0.1,-0.75 0,-3.69 -1.74,-6.68 -3.39,-8.32 -0.55,-0.54 -0.55,-0.65 -0.55,-0.79 0,-0.36 0.25,-0.55 0.5,-0.55 0.55,0 4.53,3.83 4.53,9.66 z"
           id="path3622" /><path
           style="fill:#000000;stroke-width:0"
           inkscape:connector-curvature="0"
           d="m 678.3,424.98 0.01,0.06 0.01,0.05 0.02,0.05 0.01,0.06 0.02,0.1 0.01,0.05 0.01,0.06 0.01,0.05 0.01,0.06 0.01,0.05 0.01,0.06 0.01,0.06 0,0.06 0,0.03 0,0.03 0,0.03 0.01,0.03 c 0,0.86 -0.6,1.36 -1.44,1.36 -0.5,0 -1.85,-0.36 -2.05,-2.16 -0.89,1.85 -2.64,3.14 -4.62,3.14 l 0.04,-1.09 c 3.28,0 3.99,-4.03 3.99,-4.28 0,-0.25 -0.1,-0.55 -0.16,-0.75 l -2.39,-9.52 c -0.3,-1.29 -1.44,-2.53 -2.53,-3.48 -1.05,-0.89 -2.59,-1.8 -4.05,-1.8 -2.48,0 -3.23,2.6 -3.23,4.58 0,2.41 1.45,8.28 2.79,10.81 1.35,2.46 3.49,4.44 5.58,4.44 l -0.04,1.09 c -5.69,0 -11.86,-6.96 -11.86,-14.14 0,-4.93 3.03,-7.87 6.62,-7.87 2.94,0 5.28,2.34 5.78,2.89 l 0.05,-0.05 c -1.05,-4.43 -1.64,-6.48 -1.64,-6.58 -0.2,-0.45 -1.89,-5.39 -7.17,-5.39 -0.96,0 -2.6,0.07 -4,0.5 1.5,0.46 2.04,1.75 2.04,2.6 0,0.79 -0.54,1.75 -1.89,1.75 -1.09,0 -2.68,-0.91 -2.68,-2.89 0,-2.05 1.84,-3.05 6.62,-3.05 6.22,0 9.81,3.89 10.56,6.88 z"
           id="path3624" /><path
           style="fill:#000000;stroke-width:0"
           inkscape:connector-curvature="0"
           d="m 692.79,412.53 3.41,0 c 0.7,0 1.15,0 1.15,0.76 0,0.49 -0.45,0.49 -1.08,0.49 l -3.25,0 c 0.82,4.42 1.08,6.03 1.36,7.04 0.17,0.77 0.94,1.5 1.78,1.5 0.04,0 0.97,0 1.64,-0.42 -1.43,-0.45 -1.53,-1.72 -1.53,-1.92 0,-0.77 0.6,-1.28 1.39,-1.28 0.94,0 1.99,0.8 1.99,2.12 0,1.6 -1.7,2.47 -3.49,2.47 -1.53,0 -3.23,-0.87 -4.18,-2.61 -0.69,-1.29 -0.97,-2.86 -1.71,-6.9 l -2.75,0 c -0.7,0 -1.15,0 -1.15,-0.77 0,-0.48 0.45,-0.48 1.08,-0.48 l 2.57,0 c -0.03,-0.22 -2.22,-12.75 -3.06,-16.49 -0.17,-0.76 -0.76,-3.4 -2.44,-3.4 -0.03,0 -0.87,0 -1.53,0.4 1.42,0.46 1.53,1.72 1.53,1.92 0,0.77 -0.59,1.29 -1.39,1.29 -0.93,0 -1.98,-0.8 -1.98,-2.13 0,-1.56 1.64,-2.47 3.37,-2.47 2.24,0 3.77,2.3 4.19,3.06 1.25,2.35 2.05,6.63 2.13,7.05 z"
           id="path3626" /><path
           style="fill:#000000;stroke-width:0"
           inkscape:connector-curvature="0"
           d="m 718.79,418.65 0,0.37 -0.01,0.39 -0.01,0.39 -0.01,0.41 -0.04,0.84 -0.06,0.88 -0.08,0.92 -0.11,0.95 -0.13,0.97 -0.17,1.01 -0.19,1.02 -0.23,1.03 -0.27,1.05 -0.31,1.06 -0.34,1.07 -0.4,1.07 -0.21,0.53 -0.22,0.53 -0.24,0.53 -0.25,0.53 c -2.99,6.12 -7.27,9.36 -7.77,9.36 -0.29,0 -0.5,-0.19 -0.5,-0.49 0,-0.15 0,-0.25 0.94,-1.15 4.89,-4.92 7.73,-12.85 7.73,-23.27 0,-8.51 -1.84,-17.28 -8.03,-23.56 -0.64,-0.59 -0.64,-0.7 -0.64,-0.84 0,-0.3 0.21,-0.5 0.5,-0.5 0.5,0 4.97,3.39 7.92,9.71 2.54,5.47 3.13,11 3.13,15.19 z"
           id="path3628" /></g>    </g>
    <g
       style="fill:#0000ff"
       transform="matrix(0.25731414,0,0,0.25731414,-44.902545,909.50853)"
       id="g3806">
      <g
         style="font-style:normal;font-variant:normal;font-weight:normal;font-stretch:normal;letter-spacing:normal;word-spacing:normal;text-anchor:start;fill:#0000ff;fill-opacity:1;fill-rule:evenodd;stroke:#000000;stroke-linecap:butt;stroke-linejoin:miter;stroke-miterlimit:10.43299961;stroke-dasharray:none;stroke-dashoffset:0;stroke-opacity:1"
         id="g3808"
         transform="matrix(1.0629921,0,0,-1.0629921,-186.02362,789.27165)"
         xml:space="preserve"
         stroke-miterlimit="10.433"
         font-style="normal"
         font-variant="normal"
         font-weight="normal"
         font-stretch="normal"
         font-size-adjust="none"
         letter-spacing="normal"
         word-spacing="normal"><path
           style="fill:#0000ff;stroke-width:0"
           inkscape:connector-curvature="0"
           d="m 462.14,410.34 0.25,0.27 0.24,0.25 0.24,0.25 0.23,0.24 0.22,0.23 0.22,0.22 0.21,0.22 0.2,0.21 0.2,0.2 0.2,0.19 0.19,0.19 0.19,0.19 0.18,0.17 0.19,0.18 0.35,0.33 0.34,0.32 0.33,0.3 0.33,0.29 0.32,0.29 0.65,0.56 0.33,0.29 0.33,0.28 c 0,0.05 3.08,2.69 4.88,4.49 4.73,4.64 5.83,7.03 5.83,7.21 0,0.5 -0.46,0.5 -0.55,0.5 -0.35,0 -0.5,-0.09 -0.75,-0.54 -1.49,-2.39 -2.53,-3.19 -3.74,-3.19 -1.2,0 -1.79,0.75 -2.54,1.59 -0.94,1.16 -1.78,2.14 -3.44,2.14 -3.73,0 -6.02,-4.62 -6.02,-5.67 0,-0.25 0.14,-0.54 0.6,-0.54 0.45,0 0.54,0.25 0.64,0.54 0.95,2.3 3.84,2.35 4.23,2.35 1.05,0 2,-0.36 3.14,-0.75 2,-0.75 2.55,-0.75 3.85,-0.75 -1.8,-2.14 -5.99,-5.74 -6.92,-6.53 l -4.49,-4.18 c -3.39,-3.34 -5.14,-6.18 -5.14,-6.53 0,-0.5 0.5,-0.5 0.59,-0.5 0.41,0 0.5,0.1 0.8,0.64 1.16,1.75 2.64,3.1 4.24,3.1 1.15,0 1.65,-0.46 2.89,-1.89 0.86,-1.05 1.75,-1.85 3.18,-1.85 4.94,0 7.83,6.33 7.83,7.67 0,0.25 -0.2,0.5 -0.59,0.5 -0.46,0 -0.55,-0.29 -0.71,-0.65 -1.14,-3.24 -4.32,-4.17 -5.98,-4.17 -0.98,0 -1.89,0.29 -2.94,0.64 -1.68,0.64 -2.43,0.84 -3.48,0.84 -0.1,0 -0.89,0 -1.35,-0.14 z"
           id="path3810" /><path
           style="fill:#0000ff;stroke-width:0"
           inkscape:connector-curvature="0"
           d="m 492.87,412.53 3.4,0 c 0.71,0 1.16,0 1.16,0.76 0,0.49 -0.45,0.49 -1.08,0.49 l -3.25,0 c 0.81,4.42 1.08,6.03 1.36,7.04 0.17,0.77 0.94,1.5 1.78,1.5 0.03,0 0.97,0 1.64,-0.42 -1.43,-0.45 -1.53,-1.72 -1.53,-1.92 0,-0.77 0.6,-1.28 1.39,-1.28 0.94,0 1.99,0.8 1.99,2.12 0,1.6 -1.71,2.47 -3.49,2.47 -1.53,0 -3.23,-0.87 -4.19,-2.61 -0.68,-1.29 -0.96,-2.86 -1.7,-6.9 l -2.75,0 c -0.7,0 -1.15,0 -1.15,-0.77 0,-0.48 0.45,-0.48 1.07,-0.48 l 2.58,0 c -0.03,-0.22 -2.22,-12.75 -3.06,-16.49 -0.17,-0.76 -0.77,-3.4 -2.44,-3.4 -0.03,0 -0.87,0 -1.53,0.4 1.42,0.46 1.53,1.72 1.53,1.92 0,0.77 -0.59,1.29 -1.39,1.29 -0.94,0 -1.98,-0.8 -1.98,-2.13 0,-1.56 1.64,-2.47 3.37,-2.47 2.24,0 3.77,2.3 4.19,3.06 1.25,2.35 2.05,6.63 2.12,7.05 z"
           id="path3812" /></g>    </g>
    <path
       inkscape:connector-curvature="0"
       inkscape:original-d="m 48.214286,998.79075 c 59.285714,0 59.285714,0 59.285714,0"
       inkscape:path-effect="#path-effect4977"
       id="path4975"
       d="m 48.214286,998.79075 59.285714,0"
       style="fill:none;fill-rule:evenodd;stroke:#0000ff;stroke-width:1px;stroke-linecap:butt;stroke-linejoin:miter;stroke-opacity:1;marker-end:url(#marker4985)" />
    <g
       style="fill:#008000"
       id="g5045">
      <g
         style="fill:#008000"
         id="g3710"
         transform="matrix(0.25731414,0,0,0.25731414,-83.674432,917.20788)">
        <g
           id="g3712"
           transform="matrix(1.0629921,0,0,-1.0629921,-186.02362,789.27165)"
           xml:space="preserve"
           stroke-miterlimit="10.433"
           font-style="normal"
           font-variant="normal"
           font-weight="normal"
           font-stretch="normal"
           font-size-adjust="none"
           letter-spacing="normal"
           word-spacing="normal"
           style="font-style:normal;font-variant:normal;font-weight:normal;font-stretch:normal;letter-spacing:normal;word-spacing:normal;text-anchor:start;fill:#008000;fill-opacity:1;fill-rule:evenodd;stroke:#000000;stroke-linecap:butt;stroke-linejoin:miter;stroke-miterlimit:10.43299961;stroke-dasharray:none;stroke-dashoffset:0;stroke-opacity:1"><path
             d="m 478.99,424.98 0.01,0.06 0.01,0.05 0.01,0.05 0.01,0.06 0.02,0.1 0.01,0.05 0.02,0.06 0.01,0.05 0.01,0.06 0.01,0.05 0,0.06 0.01,0.06 0,0.06 0.01,0.03 0,0.03 0,0.03 0,0.03 c 0,0.86 -0.59,1.36 -1.44,1.36 -0.5,0 -1.84,-0.36 -2.05,-2.16 -0.89,1.85 -2.64,3.14 -4.62,3.14 l 0.05,-1.09 c 3.28,0 3.98,-4.03 3.98,-4.28 0,-0.25 -0.09,-0.55 -0.16,-0.75 l -2.39,-9.52 c -0.29,-1.29 -1.43,-2.53 -2.53,-3.48 -1.04,-0.89 -2.59,-1.8 -4.04,-1.8 -2.49,0 -3.24,2.6 -3.24,4.58 0,2.41 1.45,8.28 2.8,10.81 1.34,2.46 3.48,4.44 5.58,4.44 l -0.05,1.09 c -5.69,0 -11.86,-6.96 -11.86,-14.14 0,-4.93 3.03,-7.87 6.63,-7.87 2.93,0 5.28,2.34 5.78,2.89 l 0.04,-0.05 c -1.04,-4.43 -1.64,-6.48 -1.64,-6.58 -0.2,-0.45 -1.89,-5.39 -7.17,-5.39 -0.95,0 -2.59,0.07 -4,0.5 1.5,0.46 2.05,1.75 2.05,2.6 0,0.79 -0.55,1.75 -1.89,1.75 -1.1,0 -2.69,-0.91 -2.69,-2.89 0,-2.05 1.84,-3.05 6.62,-3.05 6.22,0 9.82,3.89 10.57,6.88 z"
             id="path3714"
             inkscape:connector-curvature="0"
             style="fill:#008000;stroke-width:0" /><path
             d="m 493.47,412.53 3.41,0 c 0.7,0 1.15,0 1.15,0.76 0,0.49 -0.45,0.49 -1.08,0.49 l -3.25,0 c 0.82,4.42 1.08,6.03 1.36,7.04 0.17,0.77 0.94,1.5 1.78,1.5 0.04,0 0.97,0 1.64,-0.42 -1.43,-0.45 -1.53,-1.72 -1.53,-1.92 0,-0.77 0.6,-1.28 1.39,-1.28 0.94,0 1.99,0.8 1.99,2.12 0,1.6 -1.71,2.47 -3.49,2.47 -1.53,0 -3.23,-0.87 -4.18,-2.61 -0.69,-1.29 -0.97,-2.86 -1.71,-6.9 l -2.75,0 c -0.7,0 -1.15,0 -1.15,-0.77 0,-0.48 0.45,-0.48 1.07,-0.48 l 2.58,0 c -0.03,-0.22 -2.22,-12.75 -3.06,-16.49 -0.17,-0.76 -0.76,-3.4 -2.44,-3.4 -0.03,0 -0.87,0 -1.53,0.4 1.42,0.46 1.53,1.72 1.53,1.92 0,0.77 -0.59,1.29 -1.39,1.29 -0.93,0 -1.98,-0.8 -1.98,-2.13 0,-1.56 1.64,-2.47 3.37,-2.47 2.24,0 3.77,2.3 4.19,3.06 1.25,2.35 2.05,6.63 2.13,7.05 z"
             id="path3716"
             inkscape:connector-curvature="0"
             style="fill:#008000;stroke-width:0" /></g>      </g>
      <g
         style="fill:#008000"
         transform="matrix(0.03304483,0,0,0.03304483,-12.171114,1001.5016)"
         id="layer1-6"
         inkscape:label="Layer 1">
        <path
           inkscape:connector-curvature="0"
           id="path6053"
           d="m 429.34522,657.60111 c -35.86635,-4.20108 -43.63603,-53.68279 -10.94997,-69.73564 8.90915,-4.37548 24.07605,-4.04988 32.84592,0.70515 36.2255,19.64146 19.03881,73.82524 -21.89595,69.03049 z m 14.05527,-3.53748 c 30.14392,-8.95178 33.90869,-49.32574 5.90438,-63.31965 -29.07353,-14.52822 -59.93798,16.35638 -45.71248,45.74233 7.05375,14.57112 24.29527,22.18414 39.8081,17.57732 z M 423.57037,641.4891 c -15.87475,-7.85778 -16.03154,-31.80892 -0.26216,-40.04695 15.79772,-8.25282 33.4603,2.1492 33.4603,19.70578 0,17.01511 -17.83747,27.94449 -33.19814,20.34117 z m 16.13554,-0.9013 c 10.99233,-3.05259 17.52046,-16.2962 13.17199,-26.72199 -6.39961,-15.34356 -27.61543,-17.0288 -35.92274,-2.85344 -9.06503,15.4683 5.47687,34.37243 22.75075,29.57543 z m -246.35107,14.71966 c -19.4698,-8.00972 -28.14444,-30.05349 -19.4503,-49.4266 12.97934,-28.92183 56.0874,-27.95276 67.63424,1.52041 11.77334,30.05132 -18.47708,60.12737 -48.18394,47.90619 z m 28.43968,-3.13944 c 21.494,-10.16829 26.28746,-39.60187 9.03874,-55.50119 -31.31188,-28.86228 -75.76324,12.48989 -49.88992,46.41156 8.7512,11.47341 27.15585,15.56856 40.85118,9.08963 z m -26.0704,-11.52369 c -12.65444,-7.25751 -14.97424,-24.96726 -4.63839,-35.41031 10.69886,-10.80983 29.42631,-7.9967 36.35095,5.46042 10.40771,20.22604 -11.91242,41.30556 -31.71256,29.94989 z m 18.48658,-0.54945 c 18.06786,-7.54738 16.8014,-33.44293 -1.88161,-38.47374 -22.69164,-6.11023 -34.84601,26.90192 -13.77131,37.40388 6.01532,2.99756 10.33186,3.29259 15.65292,1.06986 z m 32.87172,-12.19695 c 0.46843,-8.29572 0.23103,-12.20997 -1.03982,-17.14482 -12.30598,-47.78527 -78.11402,-38.39613 -78.11402,11.1449 0,13.73743 0.82359,13.13205 -13.26914,9.75347 -15.277,-3.66249 -21.44209,-8.63523 -22.56648,-18.20203 -0.63057,-5.36519 0.84164,-26.19322 1.98185,-28.03812 0.31736,-0.51351 -0.24453,-2.45918 -1.24864,-4.32371 -3.06912,-5.69901 0.81397,-16.36013 6.0074,-16.49348 1.54147,-0.0396 2.8546,-1.60761 4.96985,-5.93456 6.63627,-13.57517 21.33653,-28.46635 29.33616,-29.71719 3.20727,-0.5015 6.11368,-2.85787 18.93034,-15.34772 36.29291,-35.3675 75.7643,-54.2834 122.03669,-58.48369 8.09917,-0.73519 7.29373,0.53204 8.87402,-13.96201 2.54788,-23.36847 24.96745,-19.53108 26.95337,4.6134 0.70855,8.61445 0.70855,8.61445 11.65375,9.30703 41.00979,2.59497 70.87436,13.9765 89.7729,34.21287 23.96231,25.6586 30.68415,39.64669 41.02164,85.36566 1.93709,8.56706 2.46221,9.69824 5.34717,11.5187 4.67078,2.94733 5.40264,24.47915 1.12893,33.21428 -5.27192,10.77544 -26.89115,21.53792 -25.64585,12.76702 4.40591,-31.03176 -11.23316,-52 -38.78396,-52 -26.01145,0 -41.05957,17.81108 -39.76838,47.07018 0.5044,11.42982 0.5044,11.42982 -73.8402,11.42982 -74.34459,0 -74.34459,0 -73.73758,-10.75 z m 144.68062,-0.0687 c -2.54161,-32.95902 21.71852,-56.38017 51.86632,-50.07264 21.3089,4.45826 35.73699,25.99154 32.79275,48.94172 -1.53816,11.98988 17.53854,0.80027 21.59077,-12.66426 2.99209,-9.94196 1.92221,-23.04164 -2.093,-25.62697 -3.9527,-2.54507 -3.81318,-2.15469 -8.85348,-24.77247 -14.63872,-65.68965 -54.49218,-100.81693 -119.63782,-105.45004 -21.41241,-1.52284 -18.64907,0.73823 -20.60206,-16.85735 -0.90316,-8.13709 -3.95199,-11.67929 -10.05258,-11.67929 -8.5781,0 -10.69601,3.0758 -11.8599,17.22391 -0.86241,10.48338 -0.7059,10.33766 -11.98546,11.15875 -42.95067,3.12657 -83.44168,22.8763 -119.5867,58.32913 -13.08849,12.83783 -16.06624,15.28821 -18.57856,15.28821 -7.03801,0 -20.72151,13.51829 -28.08479,27.74571 -2.86881,5.54316 -4.24987,7.24672 -5.8775,7.25 -4.56982,0.009 -8.55249,9.82701 -5.23875,12.91422 1.91994,1.7887 1.96767,2.26693 0.77335,7.74822 -5.11758,23.48682 -0.89,35.88166 13.73977,40.2837 14.95107,4.49871 16.13334,4.40175 15.01946,-1.23175 -3.05414,-15.44642 7.08591,-36.35895 21.40984,-44.15501 32.21701,-17.5347 66.49455,7.50392 63.24021,46.19491 -0.6098,7.25 -0.6098,7.25 71.00563,7.25 71.61544,0 71.61544,0 71.0125,-7.81866 z M 140.03557,590.06614 c -3.40516,-8.87371 5.65336,-31.98746 12.2376,-31.2255 8.26728,0.95672 -0.77162,32.80729 -9.3104,32.80729 -1.27612,0 -2.59336,-0.7118 -2.9272,-1.58179 z m 7.6774,-6.22636 c 3.19827,-5.91024 5.94839,-15.31899 5.53316,-18.93013 -0.53519,-4.65447 -3.10254,-3.19226 -6.56368,3.73828 -7.02482,14.06636 -6.05969,28.29421 1.03052,15.19185 z m 36.96561,-50.89758 c -4.20354,-0.80964 -2.29685,-3.85064 10,-15.94906 28.21509,-27.7598 76.02871,-55.16702 80.77398,-46.3004 1.32194,2.47007 0.54545,3.14527 -14.44399,12.55964 -19.93106,12.51805 -40.08597,29.44391 -53.75825,45.14555 -4.65193,5.3424 -11.3875,6.69845 -22.57174,4.54427 z m 23.1381,-9.24457 c 10.67967,-12.82089 34.5232,-32.45103 53.78287,-44.2789 5.13097,-3.15106 10.00403,-6.144 10.82903,-6.65098 1.29216,-0.79407 1.25169,-1.02185 -0.29212,-1.64396 -7.20049,-2.90157 -56.45255,28.53531 -76.69001,48.95014 -10.48214,10.574 -10.48214,10.574 -1.95072,10.574 8.53142,0 8.53142,0 14.32095,-6.9503 z m 49.59716,8.43254 c -7.58588,-9.14042 14.11389,-47.44592 31.98954,-56.46952 18.63712,-9.40799 75.90527,-9.65553 96.8496,-0.41863 26.12298,11.52079 30.02068,55.38063 4.9256,55.42645 -6.1875,0.0113 -37.8,0.6761 -70.25,1.47734 -32.45,0.80125 -59.7324,1.46701 -60.62756,1.47947 -0.89515,0.0125 -2.19438,-0.66034 -2.88718,-1.49511 z m 93.01474,-3.10762 c 53.64885,-1.08232 52.36635,-0.90473 53.2579,-7.37462 5.16249,-37.46365 -12.22147,-50.38883 -67.7579,-50.37882 -47.23002,0.008 -67.71713,13.73137 -75.86344,50.81554 -2.09906,9.55546 -4.21765,8.96017 29.26867,8.224 16.27712,-0.35784 43.76977,-0.93658 61.09477,-1.2861 z m 89,-9.00998 c -7.44739,-1.36334 -11.3554,-5.37786 -20.3111,-20.86464 -17.37532,-30.04654 -7.90351,-37.87304 19.48521,-16.1005 10.08584,8.01771 31.40269,34.35552 29.416,36.34465 -0.83252,0.83354 -24.60768,1.34953 -28.59011,0.62049 z m 20.37669,-2.20225 c 5.71018,-0.7756 0.0209,-10.04565 -15.77052,-25.69629 -11.6355,-11.53176 -30.79702,-22.66831 -31.87967,-18.52825 -1.59576,6.10222 16.74023,39.94737 23.07893,42.59981 4.24911,1.77804 17.15823,2.63164 24.57126,1.62473 z M 78.963487,629.47553 c -10.76235,-11.97032 -17.557225,-27.53067 -17.391872,-39.8276 0.10085,-7.5 0.10085,-7.5 0.936292,-1.80327 2.50734,17.09712 17.143208,43.80327 24.005661,43.80327 3.139171,0 2.217542,-2.74075 -3.129358,-9.30611 -21.371691,-26.24191 -21.404418,-64.12219 -0.07858,-90.95851 9.021335,-11.3524 5.095396,-14.49803 -4.132243,-3.31093 -8.368444,10.14545 -14.613413,24.26994 -16.824276,38.0521 -0.653835,4.07591 -0.748221,3.32583 -0.500394,-3.97655 0.685809,-20.20782 20.32675,-49.61026 28.008439,-41.92857 2.653994,2.65399 1.80452,5.16554 -4.37896,12.9468 -21.071176,26.51585 -20.866509,61.91707 0.507779,87.83011 9.929684,12.03822 3.335716,20.00007 -7.022484,8.47926 z M 543.00001,629.0765 c -2.63112,-2.63111 -1.81041,-5.19217 3.87118,-12.08023 21.51696,-26.08601 21.50209,-61.86285 -0.0368,-88.54499 -5.64547,-6.99354 -6.46342,-9.60288 -3.83438,-12.23192 7.58536,-7.58536 27.24064,21.81545 28.03044,41.92857 0.35342,9 0.35342,9 -1.0103,1.8602 -3.92151,-20.53111 -21.22197,-48.43035 -25.61958,-41.31488 -0.48132,0.77879 1.41375,3.98717 5.08056,8.60147 21.53033,27.09364 21.39646,65.10351 -0.32178,91.36836 -5.40239,6.53337 -6.14792,8.98485 -2.73242,8.98485 6.78418,0 21.43178,-26.82067 23.92232,-43.80327 0.83545,-5.69673 0.83545,-5.69673 0.9363,1.80327 0.26514,19.71813 -20.34774,51.36638 -28.28554,43.42857 z M 94.47366,614.89793 c -18.964034,-21.91423 -17.19493,-65.42394 3.242171,-79.73864 8.435269,-5.9083 11.097679,2.44953 3.809429,11.95853 -13.529498,17.65197 -13.527013,41.28618 0.006,59.16606 5.22355,6.90126 6.12163,10.63833 2.96284,12.32887 -3.60062,1.92699 -5.864718,1.08765 -10.020661,-3.71482 z m 9.21983,0.5 c 0.23737,-0.6875 -1.4781,-3.725 -3.812149,-6.75 C 84.513,588.73007 84.658602,563.109 100.24734,544.24447 c 4.045,-4.89501 4.46987,-7.59654 1.19471,-7.59654 -7.136173,0 -18.023227,24.10381 -18.0016,39.85534 0.02571,18.7235 16.376168,50.12352 20.25304,38.89466 z m 424.48509,-0.8301 c -2.94982,-1.71811 -1.97747,-5.51346 3.1471,-12.28395 13.53323,-17.87988 13.53572,-41.51409 0.006,-59.16606 -5.17658,-6.75389 -5.89848,-9.33187 -3.33189,-11.89846 7.98417,-7.98417 24.34895,20.18427 24.41121,42.01861 0.0582,20.39972 -15.27329,46.5482 -24.23264,41.32986 z m 9.37811,-7.1699 c 13.19311,-16.59165 15.74316,-40.18533 6.406,-59.26981 -3.44573,-7.04281 -10.26541,-15.48019 -12.51219,-15.48019 -3.30989,0 -2.9003,2.68383 1.15932,7.59654 15.6366,18.92245 15.66396,45.23856 0.0675,64.9695 -2.15099,2.72121 -3.72442,5.50707 -3.49651,6.19081 0.90079,2.70235 4.35478,1.05003 8.37583,-4.00685 z M 111.24948,601.4562 c -12.261133,-13.12558 -12.261133,-36.49096 0,-49.61654 6.63212,-7.09971 14.05916,0.006 7.8198,7.48154 -8.30155,9.94622 -8.7166,22.17698 -1.12701,33.21031 6.65233,9.67079 1.02006,17.18132 -6.69279,8.92469 z m 7.46816,-1.05827 c 0.25065,-0.6875 -0.64047,-2.72 -1.98026,-4.51666 -8.98129,-12.04388 -8.92887,-27.57712 0.1294,-38.34226 2.76932,-3.29115 2.40457,-6.16046 -0.72382,-5.69395 -5.5699,0.83058 -12.30475,16.8593 -11.46733,27.29185 0.98787,12.30669 11.50242,28.22678 14.04201,21.26102 z m 394.46094,-0.8301 c -2.70243,-1.57402 -2.08855,-5.47595 1.73631,-11.03632 7.58959,-11.03333 7.17454,-23.26409 -1.127,-33.21031 -6.23936,-7.47548 1.18767,-14.58125 7.81979,-7.48154 15.22817,16.3018 7.90517,61.24201 -8.4291,51.72817 z m 7.66911,-5.22495 c 10.75505,-14.10061 8.03639,-44.68305 -4.13349,-46.49782 -3.12839,-0.46651 -3.49313,2.4028 -0.72382,5.69395 9.02616,10.72698 9.02616,27.49086 0,38.21784 -1.36304,1.61988 -2.2239,3.60805 -1.91304,4.41816 0.95718,2.49436 4.12402,1.63737 6.77035,-1.83213 z M 299.0543,436.13079 c -8.05906,-8.05906 12.36378,-30.33278 30.7476,-33.53418 20.81285,-3.6244 51.9444,18.66982 44.54362,31.89901 -3.13818,5.60962 -7.4994,3.92838 -11.29048,-4.35243 -10.81968,-23.6333 -42.07462,-23.25303 -53.9713,0.65666 -3.42613,6.88577 -6.7225,8.63788 -10.02944,5.33094 z m 8.25755,-7.89731 c 12.09517,-24.56878 45.63708,-24.3076 58.13604,0.45269 2.99751,5.93804 5.44874,7.51158 6.68456,4.29109 2.02271,-5.27111 -9.94485,-19.84517 -20.57988,-25.06213 -18.91337,-9.27785 -51.05257,5.80175 -51.11461,23.9828 -0.0178,5.22727 3.39118,3.40994 6.87389,-3.66445 z m -30.13327,1.33435 c -5.99998,-3.49467 4.90827,-25.03016 18.52712,-36.57697 31.9674,-27.10372 85.09291,-13.4631 99.70136,25.59953 5.03555,13.46493 -4.45424,17.78698 -9.80066,4.46364 -17.97723,-44.79948 -82.30031,-44.53246 -98.78048,0.41007 -2.47749,6.75628 -5.37718,8.59087 -9.64734,6.10373 z m 9.1239,-11.17954 c 20.5323,-43.37684 83.78122,-41.66657 101.50262,2.74466 2.64798,6.63605 6.62348,9.15714 6.62348,4.20033 0,-25.1969 -42.78991,-50.0061 -72.92776,-42.28286 -20.20518,5.17786 -49.28497,34.35412 -43.52674,43.67114 1.76159,2.8503 4.1802,0.43026 8.3284,-8.33327 z m -31.8739,3.25964 c -2.5426,-2.5426 -2.52571,-2.82939 0.63769,-10.82944 28.56315,-72.23458 129.92803,-74.23009 161.05282,-3.17056 4.07751,9.30919 4.30571,13.58897 0.80949,15.18195 -4.00589,1.82521 -6.71674,-0.10803 -8.84474,-6.3076 -22.59668,-65.83159 -116.6689,-67.39725 -142.66242,-2.37435 -3.88884,9.72796 -6.78734,11.7055 -10.99284,7.5 z m 5.70536,-2.25 c 0.52264,-0.6875 1.7671,-3.5 2.76548,-6.25 23.88715,-65.79646 119.84984,-66.05191 146.69644,-0.3905 4.92892,12.05516 9.65424,11.03815 5.15506,-1.1095 -26.83076,-72.44233 -134.45267,-70.24547 -158.25602,3.23045 -1.62808,5.02555 0.88329,8.14459 3.63904,4.51955 z"
           style="fill:#008000" />
        <path
           inkscape:connector-curvature="0"
           id="path6055"
           d="m 256.2157,633.48607 c -3.61414,-0.71054 -4.46713,-2.75967 -5.56219,-13.36194 -2.60699,-25.24038 -17.09414,-41.62818 -38.35913,-43.39164 -13.48659,-1.11841 -23.6703,2.06698 -33.11254,10.35737 -9.17675,8.0573 -14.56091,19.89135 -14.61749,32.12835 -0.0502,10.86107 -2.53763,11.98548 -14.9975,6.7794 -10.12973,-4.23247 -13.33114,-10.21778 -13.33114,-24.92372 0,-12.30698 0.12898,-12.62098 4.17219,-10.15707 3.61751,2.20448 4.6852,1.91666 8.0309,-2.16486 8.12044,-9.90637 10.37135,-27.88065 3.79609,-30.31299 -3.94594,-1.45971 -3.63634,-2.18634 5.04608,-11.84329 9.94795,-11.06451 25.42176,-20.50663 25.42176,-15.51235 0,1.9774 2.84617,2.77699 9.88478,2.77699 9.54601,0 10.41111,-0.50952 25.24138,-14.8663 8.44613,-8.17647 23.31715,-20.42309 33.0467,-27.21473 9.72956,-6.79163 19.78246,-13.8166 22.33979,-15.61103 3.53978,-2.48382 4.11918,-3.90183 2.42728,-5.94045 -1.33396,-1.60732 -1.46521,-3.14581 -0.32831,-3.84845 3.24252,-2.00399 30.54065,-7.27033 37.68583,-7.27033 8.71515,0 13.14421,-4.51832 13.14421,-13.40911 0,-10.33481 3.12026,-14.87516 10.2226,-14.87516 6.56715,0 9.95178,5.33789 10.01138,15.78888 0.0531,9.32955 2.50316,10.82459 20.77296,12.67641 18.4148,1.86652 31.73926,4.44945 40.87888,7.92433 4.29054,1.63126 5.08151,2.7101 3.29598,4.49562 -1.2921,1.29211 -2.34929,3.86358 -2.34929,5.71439 0,5.80837 13.66615,30.98022 20.23948,37.27933 5.93188,5.68441 7.27524,6.03871 23.78978,6.27419 l 17.50289,0.24958 5.51406,11.72055 c 3.03272,6.4463 7.41729,19.97105 9.74345,30.055 2.32617,10.08395 6.00115,20.79776 8.16659,23.80848 8.00118,11.12438 4.22386,32.21317 -7.33661,40.9603 -6.66717,5.04466 -8.92927,3.70483 -8.92927,-5.28876 0,-26.26457 -18.42247,-46.03911 -42.99637,-46.15197 -24.59768,-0.11295 -41.22518,16.5995 -43.39377,43.6155 l -1.00048,12.46397 -7.3174,1.21028 c -8.04536,1.33068 -119.89463,1.21174 -126.74355,-0.13475 l 0,-2e-5 z M 348.31225,532.5196 c 45.81092,-1.25126 49.41331,-1.62217 53.99015,-5.55899 10.31206,-8.87007 7.98388,-29.59325 -4.93068,-43.88814 -10.47005,-11.58909 -22.77599,-14.6525 -59.1055,-14.71356 -38.79618,-0.0652 -48.2332,2.65706 -62.20465,17.94406 -15.434,16.88725 -25.19946,40.292 -19.28099,46.21048 1.7056,1.70559 29.24402,1.70745 91.53167,0.006 l 0,9e-5 z"
           style="opacity:0.8;fill:#008000;fill-opacity:1;stroke:#000000;stroke-width:2.02030516;stroke-miterlimit:10;stroke-dasharray:none" />
      </g>
    </g>
    <path
       sodipodi:nodetypes="cc"
       inkscape:connector-curvature="0"
       inkscape:original-d="m -0.89285714,1015.755 67.85714214,0.3572"
       inkscape:path-effect="#path-effect5031"
       id="path5029"
       d="m -0.89285714,1015.755 67.85714214,0.3572"
       style="fill:none;fill-rule:evenodd;stroke:#0000ff;stroke-width:1px;stroke-linecap:butt;stroke-linejoin:miter;stroke-opacity:1" />
    <path
       inkscape:connector-curvature="0"
       inkscape:original-d="m 8.04615,983.55282 61.366767,0 0,-37.37565 10.606602,0 0,39.90103 46.972091,0"
       inkscape:path-effect="#path-effect5274"
       id="path5272"
       d="m 8.04615,983.55282 61.366767,0 0,-37.37565 10.606602,0 0,39.90103 46.972091,0"
       style="fill:none;fill-rule:evenodd;stroke:#000000;stroke-width:1px;stroke-linecap:butt;stroke-linejoin:miter;stroke-opacity:1" />
    <g
       transform="translate(-20.738768,925.84583)"
       id="g5354">
      <g
         style="font-style:normal;font-variant:normal;font-weight:normal;font-stretch:normal;letter-spacing:normal;word-spacing:normal;text-anchor:start;fill:none;fill-opacity:1;fill-rule:evenodd;stroke:#000000;stroke-linecap:butt;stroke-linejoin:miter;stroke-miterlimit:10.43299961;stroke-dasharray:none;stroke-dashoffset:0;stroke-opacity:1"
         word-spacing="normal"
         letter-spacing="normal"
         font-size-adjust="none"
         font-stretch="normal"
         font-weight="normal"
         font-variant="normal"
         font-style="normal"
         stroke-miterlimit="10.433"
         xml:space="preserve"
         transform="matrix(0.14445876,0,0,-0.14445876,-25.280283,112.96352)"
         id="g5356"><path
           style="fill:#000000;stroke-width:0"
           inkscape:connector-curvature="0"
           id="path5358"
           d="m 461.05,417.71 0.05,1.05 c 0.29,7.42 4.48,8.66 6.19,8.66 5.12,0 5.62,-6.72 5.62,-8.66 l -11.81,0 -0.05,-1.05 13.91,0 c 1.09,0 1.23,0 1.23,1.05 0,4.92 -2.69,9.75 -8.9,9.75 -5.79,0 -10.38,-5.12 -10.38,-11.36 0,-6.67 5.23,-11.5 10.97,-11.5 6.08,0 8.31,5.53 8.31,6.47 0,0.5 -0.39,0.61 -0.64,0.61 -0.45,0 -0.55,-0.3 -0.66,-0.7 -1.73,-5.13 -6.21,-5.13 -6.71,-5.13 -2.5,0 -4.49,1.49 -5.63,3.33 -1.5,2.39 -1.5,5.69 -1.5,7.48 z" /><path
           style="fill:#000000;stroke-width:0"
           inkscape:connector-curvature="0"
           id="path5360"
           d="m 491.89,417.9 0.29,0.36 0.29,0.37 0.3,0.38 0.31,0.39 0.61,0.78 0.31,0.38 0.3,0.39 0.3,0.37 0.3,0.37 0.29,0.35 0.28,0.34 0.13,0.16 0.14,0.16 0.13,0.16 0.13,0.15 0.12,0.14 0.12,0.14 0.12,0.13 0.11,0.12 c 1.55,1.78 3.6,2.53 5.94,2.58 l 0,1.55 c -1.3,-0.1 -2.8,-0.14 -4.09,-0.14 -1.49,0 -4.13,0.09 -4.78,0.14 l 0,-1.55 c 1.04,-0.09 1.45,-0.73 1.45,-1.53 0,-0.8 -0.5,-1.45 -0.75,-1.75 l -3.1,-3.89 -3.87,5.03 c -0.45,0.5 -0.45,0.61 -0.45,0.91 0,0.75 0.75,1.18 1.73,1.23 l 0,1.55 c -1.28,-0.05 -4.58,-0.14 -5.37,-0.14 -1.05,0 -3.39,0.04 -4.74,0.14 l 0,-1.55 c 3.49,0 3.55,-0.05 5.88,-3.03 l 4.93,-6.42 -4.68,-5.94 c -2.39,-2.89 -5.33,-2.98 -6.38,-2.98 l 0,-1.55 c 1.3,0.09 2.85,0.16 4.14,0.16 1.44,0 3.53,-0.11 4.74,-0.16 l 0,1.55 c -1.1,0.14 -1.46,0.79 -1.46,1.54 0,1.1 1.46,2.74 4.49,6.33 l 3.79,-4.98 c 0.4,-0.55 1.05,-1.35 1.05,-1.64 0,-0.46 -0.45,-1.21 -1.8,-1.25 l 0,-1.55 c 1.49,0.05 4.29,0.16 5.38,0.16 1.34,0 3.3,-0.07 4.78,-0.16 l 0,1.55 c -2.69,0 -3.58,0.09 -4.73,1.54 z" /><path
           style="fill:#000000;stroke-width:0"
           inkscape:connector-curvature="0"
           id="path5362"
           d="m 512.44,424.93 0,3.28 -7.17,-0.54 0,-1.55 c 3.54,0 3.89,-0.3 3.89,-2.48 l 0,-23.32 c 0,-2.25 -0.55,-2.25 -3.89,-2.25 l 0,-1.54 c 1.7,0.06 4.28,0.15 5.57,0.15 1.35,0 3.89,-0.09 5.64,-0.15 l 0,1.54 c -3.34,0 -3.89,0 -3.89,2.25 l 0,8.36 0,0.46 0.71,0.65 c -0.71,1.05 -0.71,1.1 -0.71,2.08 l 0,0 0,11.13 c 1.44,2.53 3.89,3.98 6.43,3.98 3.64,0 6.68,-4.39 6.68,-10.02 0,-6.03 -3.5,-10.21 -7.18,-10.21 -1.99,0 -3.88,1 -5.22,3.04 l -0.71,-0.65 c 0.25,-0.8 2.35,-3.49 6.13,-3.49 5.94,0 11.11,4.88 11.11,11.31 0,6.33 -4.83,11.25 -10.41,11.25 -3.89,0 -5.98,-2.18 -6.98,-3.28 z" /><path
           style="fill:#000000;stroke-width:0"
           inkscape:connector-curvature="0"
           id="path5364"
           d="m 548.2,394.25 0,0.02 0,0.03 0,0.01 -0.01,0.02 0,0.01 0,0.02 -0.01,0.01 -0.01,0.02 -0.01,0.02 -0.01,0.02 -0.01,0.02 -0.01,0.03 -0.02,0.02 -0.02,0.03 -0.02,0.03 -0.02,0.03 -0.03,0.03 -0.03,0.04 -0.01,0.02 -0.02,0.02 -0.02,0.02 -0.02,0.02 -0.01,0.02 -0.02,0.03 -0.03,0.02 -0.02,0.02 -0.02,0.03 -0.02,0.02 -0.03,0.03 -0.02,0.03 -0.03,0.03 -0.03,0.03 -0.03,0.03 -0.03,0.03 -0.03,0.03 -0.03,0.03 -0.03,0.04 -0.04,0.03 -0.03,0.04 -0.04,0.03 -0.04,0.04 -0.04,0.04 c -6.21,6.28 -7.81,15.69 -7.81,23.31 0,8.67 1.89,17.35 8.02,23.56 0.64,0.61 0.64,0.71 0.64,0.86 0,0.35 -0.19,0.49 -0.48,0.49 -0.5,0 -4.99,-3.38 -7.93,-9.7 -2.54,-5.49 -3.14,-11.02 -3.14,-15.21 0,-3.89 0.55,-9.9 3.28,-15.54 2.99,-6.13 7.29,-9.36 7.79,-9.36 0.29,0 0.48,0.14 0.48,0.5 z" /><path
           style="fill:#000000;stroke-width:0"
           inkscape:connector-curvature="0"
           id="path5366"
           d="m 583.86,417.65 0.16,0 0.16,0 0.15,0.01 0.08,0 0.08,0.01 0.07,0 0.08,0.01 0.07,0.01 0.07,0.01 0.07,0.02 0.07,0.02 0.07,0.02 0.06,0.02 0.06,0.02 0.06,0.03 0.06,0.03 0.05,0.04 0.05,0.03 0.04,0.05 0.05,0.04 0.03,0.05 0.02,0.03 0.02,0.03 0.01,0.03 0.02,0.03 0.01,0.03 0.02,0.03 0.01,0.04 0.01,0.03 0.01,0.04 0.01,0.04 0,0.04 0.01,0.04 0,0.04 0.01,0.04 0,0.05 0,0.04 c 0,1 -0.91,1 -1.75,1 l -26.95,0 c -0.85,0 -1.74,0 -1.74,-1 0,-1 0.89,-1 1.74,-1 z" /><path
           style="fill:#000000;stroke-width:0"
           inkscape:connector-curvature="0"
           id="path5368"
           d="m 608.07,422.04 0,-1.59 c 0,-11.66 -5.17,-13.95 -8.06,-13.95 -0.86,0 -3.55,0.11 -4.89,1.79 2.18,0 2.59,1.44 2.59,2.3 0,1.53 -1.2,2.28 -2.3,2.28 -0.79,0 -2.28,-0.44 -2.28,-2.39 0,-3.33 2.69,-5.37 6.92,-5.37 6.43,0 12.5,6.76 12.5,17.48 0,13.41 -5.73,16.8 -10.15,16.8 -2.75,0 -5.19,-0.91 -7.33,-3.14 -2.05,-2.25 -3.19,-4.35 -3.19,-8.08 0,-6.22 4.39,-11.11 9.97,-11.11 l 0.05,1.14 c -0.8,0 -3.1,0 -4.64,3.14 -0.89,1.84 -0.89,4.34 -0.89,6.78 0,2.69 0,5.03 1.04,6.88 1.35,2.48 3.24,3.14 4.99,3.14 2.28,0 3.94,-1.71 4.78,-3.94 0.59,-1.59 0.8,-4.74 0.8,-7.03 0,-4.13 -1.71,-8.97 -6.08,-8.97 l 0,0 -0.05,-1.14 c 3.03,0 5.08,2.09 6.22,4.98 z" /><path
           style="fill:#000000;stroke-width:0"
           inkscape:connector-curvature="0"
           id="path5370"
           d="m 637.67,422.14 -0.01,0.74 -0.01,0.75 -0.02,0.75 -0.03,0.74 -0.04,0.75 -0.06,0.74 -0.08,0.74 -0.1,0.73 -0.11,0.73 -0.14,0.73 -0.16,0.72 -0.19,0.72 -0.22,0.72 -0.24,0.7 -0.28,0.7 -0.15,0.35 -0.16,0.34 c -2.28,4.8 -6.38,5.6 -8.47,5.6 -2.98,0 -6.63,-1.3 -8.67,-5.94 -1.6,-3.44 -1.85,-7.33 -1.85,-11.31 0,-3.74 0.21,-8.22 2.25,-12 2.14,-4.03 5.79,-5.03 8.22,-5.03 l 0,1.09 c -1.93,0 -4.89,1.25 -5.78,6.03 -0.55,2.98 -0.55,7.56 -0.55,10.52 0,3.18 0,6.46 0.41,9.15 0.94,5.94 4.67,6.38 5.92,6.38 1.64,0 4.94,-0.89 5.88,-5.83 0.5,-2.78 0.5,-6.58 0.5,-9.7 0,-3.75 0,-7.13 -0.55,-10.32 -0.75,-4.73 -3.59,-6.23 -5.83,-6.23 l 0,0 0,-1.09 c 2.69,0 6.47,1.04 8.67,5.78 1.6,3.43 1.85,7.31 1.85,11.25 z" /><path
           style="fill:#000000;stroke-width:0"
           inkscape:connector-curvature="0"
           id="path5372"
           d="m 662.62,422.14 0,0.74 -0.01,0.75 -0.02,0.75 -0.03,0.74 -0.05,0.75 -0.06,0.74 -0.07,0.74 -0.1,0.73 -0.11,0.73 -0.14,0.73 -0.17,0.72 -0.18,0.72 -0.22,0.72 -0.25,0.7 -0.27,0.7 -0.16,0.35 -0.16,0.34 c -2.28,4.8 -6.37,5.6 -8.46,5.6 -2.99,0 -6.63,-1.3 -8.68,-5.94 -1.59,-3.44 -1.84,-7.33 -1.84,-11.31 0,-3.74 0.2,-8.22 2.25,-12 2.14,-4.03 5.78,-5.03 8.22,-5.03 l 0,1.09 c -1.94,0 -4.89,1.25 -5.78,6.03 -0.55,2.98 -0.55,7.56 -0.55,10.52 0,3.18 0,6.46 0.41,9.15 0.93,5.94 4.67,6.38 5.92,6.38 1.64,0 4.94,-0.89 5.87,-5.83 0.5,-2.78 0.5,-6.58 0.5,-9.7 0,-3.75 0,-7.13 -0.54,-10.32 -0.75,-4.73 -3.6,-6.23 -5.83,-6.23 l 0,0 0,-1.09 c 2.69,0 6.47,1.04 8.67,5.78 1.6,3.43 1.84,7.31 1.84,11.25 z" /><path
           style="fill:#000000;stroke-width:0"
           inkscape:connector-curvature="0"
           id="path5374"
           d="m 679.05,418.65 0,0.37 -0.01,0.39 0,0.39 -0.02,0.41 -0.04,0.84 -0.06,0.88 -0.08,0.92 -0.11,0.95 -0.13,0.97 -0.16,1.01 -0.2,1.02 -0.23,1.03 -0.27,1.05 -0.3,1.06 -0.35,1.07 -0.39,1.07 -0.22,0.53 -0.22,0.53 -0.24,0.53 -0.25,0.53 c -2.99,6.12 -7.27,9.36 -7.77,9.36 -0.29,0 -0.5,-0.19 -0.5,-0.49 0,-0.15 0,-0.25 0.94,-1.15 4.89,-4.92 7.74,-12.85 7.74,-23.27 0,-8.51 -1.85,-17.28 -8.03,-23.56 -0.65,-0.59 -0.65,-0.7 -0.65,-0.84 0,-0.3 0.21,-0.5 0.5,-0.5 0.5,0 4.97,3.39 7.93,9.71 2.53,5.47 3.12,11 3.12,15.19 z" /></g>    </g>
    <g
       transform="translate(47.016703,927.80669)"
       id="g5536">
      <g
         style="font-style:normal;font-variant:normal;font-weight:normal;font-stretch:normal;letter-spacing:normal;word-spacing:normal;text-anchor:start;fill:none;fill-opacity:1;fill-rule:evenodd;stroke:#000000;stroke-linecap:butt;stroke-linejoin:miter;stroke-miterlimit:10.43299961;stroke-dasharray:none;stroke-dashoffset:0;stroke-opacity:1"
         id="g5538"
         transform="matrix(0.14445876,0,0,-0.14445876,-25.280283,112.96352)"
         xml:space="preserve"
         stroke-miterlimit="10.433"
         font-style="normal"
         font-variant="normal"
         font-weight="normal"
         font-stretch="normal"
         font-size-adjust="none"
         letter-spacing="normal"
         word-spacing="normal"><path
           style="fill:#000000;stroke-width:0"
           inkscape:connector-curvature="0"
           d="m 461.05,417.71 0.05,1.05 c 0.29,7.42 4.48,8.66 6.19,8.66 5.12,0 5.62,-6.72 5.62,-8.66 l -11.81,0 -0.05,-1.05 13.91,0 c 1.09,0 1.23,0 1.23,1.05 0,4.92 -2.69,9.75 -8.9,9.75 -5.79,0 -10.38,-5.12 -10.38,-11.36 0,-6.67 5.23,-11.5 10.97,-11.5 6.08,0 8.31,5.53 8.31,6.47 0,0.5 -0.39,0.61 -0.64,0.61 -0.45,0 -0.55,-0.3 -0.66,-0.7 -1.73,-5.13 -6.21,-5.13 -6.71,-5.13 -2.5,0 -4.49,1.49 -5.63,3.33 -1.5,2.39 -1.5,5.69 -1.5,7.48 z"
           id="path5540" /><path
           style="fill:#000000;stroke-width:0"
           inkscape:connector-curvature="0"
           d="m 491.89,417.9 0.29,0.36 0.29,0.37 0.3,0.38 0.31,0.39 0.61,0.78 0.31,0.38 0.3,0.39 0.3,0.37 0.3,0.37 0.29,0.35 0.28,0.34 0.13,0.16 0.14,0.16 0.13,0.16 0.13,0.15 0.12,0.14 0.12,0.14 0.12,0.13 0.11,0.12 c 1.55,1.78 3.6,2.53 5.94,2.58 l 0,1.55 c -1.3,-0.1 -2.8,-0.14 -4.09,-0.14 -1.49,0 -4.13,0.09 -4.78,0.14 l 0,-1.55 c 1.04,-0.09 1.45,-0.73 1.45,-1.53 0,-0.8 -0.5,-1.45 -0.75,-1.75 l -3.1,-3.89 -3.87,5.03 c -0.45,0.5 -0.45,0.61 -0.45,0.91 0,0.75 0.75,1.18 1.73,1.23 l 0,1.55 c -1.28,-0.05 -4.58,-0.14 -5.37,-0.14 -1.05,0 -3.39,0.04 -4.74,0.14 l 0,-1.55 c 3.49,0 3.55,-0.05 5.88,-3.03 l 4.93,-6.42 -4.68,-5.94 c -2.39,-2.89 -5.33,-2.98 -6.38,-2.98 l 0,-1.55 c 1.3,0.09 2.85,0.16 4.14,0.16 1.44,0 3.53,-0.11 4.74,-0.16 l 0,1.55 c -1.1,0.14 -1.46,0.79 -1.46,1.54 0,1.1 1.46,2.74 4.49,6.33 l 3.79,-4.98 c 0.4,-0.55 1.05,-1.35 1.05,-1.64 0,-0.46 -0.45,-1.21 -1.8,-1.25 l 0,-1.55 c 1.49,0.05 4.29,0.16 5.38,0.16 1.34,0 3.3,-0.07 4.78,-0.16 l 0,1.55 c -2.69,0 -3.58,0.09 -4.73,1.54 z"
           id="path5542" /><path
           style="fill:#000000;stroke-width:0"
           inkscape:connector-curvature="0"
           d="m 512.44,424.93 0,3.28 -7.17,-0.54 0,-1.55 c 3.54,0 3.89,-0.3 3.89,-2.48 l 0,-23.32 c 0,-2.25 -0.55,-2.25 -3.89,-2.25 l 0,-1.54 c 1.7,0.06 4.28,0.15 5.57,0.15 1.35,0 3.89,-0.09 5.64,-0.15 l 0,1.54 c -3.34,0 -3.89,0 -3.89,2.25 l 0,8.36 0,0.46 0.71,0.65 c -0.71,1.05 -0.71,1.1 -0.71,2.08 l 0,0 0,11.13 c 1.44,2.53 3.89,3.98 6.43,3.98 3.64,0 6.68,-4.39 6.68,-10.02 0,-6.03 -3.5,-10.21 -7.18,-10.21 -1.99,0 -3.88,1 -5.22,3.04 l -0.71,-0.65 c 0.25,-0.8 2.35,-3.49 6.13,-3.49 5.94,0 11.11,4.88 11.11,11.31 0,6.33 -4.83,11.25 -10.41,11.25 -3.89,0 -5.98,-2.18 -6.98,-3.28 z"
           id="path5544" /><path
           style="fill:#000000;stroke-width:0"
           inkscape:connector-curvature="0"
           d="m 548.2,394.25 0,0.02 0,0.03 0,0.01 -0.01,0.02 0,0.01 0,0.02 -0.01,0.01 -0.01,0.02 -0.01,0.02 -0.01,0.02 -0.01,0.02 -0.01,0.03 -0.02,0.02 -0.02,0.03 -0.02,0.03 -0.02,0.03 -0.03,0.03 -0.03,0.04 -0.01,0.02 -0.02,0.02 -0.02,0.02 -0.02,0.02 -0.01,0.02 -0.02,0.03 -0.03,0.02 -0.02,0.02 -0.02,0.03 -0.02,0.02 -0.03,0.03 -0.02,0.03 -0.03,0.03 -0.03,0.03 -0.03,0.03 -0.03,0.03 -0.03,0.03 -0.03,0.03 -0.03,0.04 -0.04,0.03 -0.03,0.04 -0.04,0.03 -0.04,0.04 -0.04,0.04 c -6.21,6.28 -7.81,15.69 -7.81,23.31 0,8.67 1.89,17.35 8.02,23.56 0.64,0.61 0.64,0.71 0.64,0.86 0,0.35 -0.19,0.49 -0.48,0.49 -0.5,0 -4.99,-3.38 -7.93,-9.7 -2.54,-5.49 -3.14,-11.02 -3.14,-15.21 0,-3.89 0.55,-9.9 3.28,-15.54 2.99,-6.13 7.29,-9.36 7.79,-9.36 0.29,0 0.48,0.14 0.48,0.5 z"
           id="path5546" /><path
           style="fill:#000000;stroke-width:0"
           inkscape:connector-curvature="0"
           d="m 583.86,417.65 0.16,0 0.16,0 0.15,0.01 0.08,0 0.08,0.01 0.07,0 0.08,0.01 0.07,0.01 0.07,0.01 0.07,0.02 0.07,0.02 0.07,0.02 0.06,0.02 0.06,0.02 0.06,0.03 0.06,0.03 0.05,0.04 0.05,0.03 0.04,0.05 0.05,0.04 0.03,0.05 0.02,0.03 0.02,0.03 0.01,0.03 0.02,0.03 0.01,0.03 0.02,0.03 0.01,0.04 0.01,0.03 0.01,0.04 0.01,0.04 0,0.04 0.01,0.04 0,0.04 0.01,0.04 0,0.05 0,0.04 c 0,1 -0.91,1 -1.75,1 l -26.95,0 c -0.85,0 -1.74,0 -1.74,-1 0,-1 0.89,-1 1.74,-1 z"
           id="path5548" /><path
           style="fill:#000000;stroke-width:0"
           inkscape:connector-curvature="0"
           d="m 604.43,438.09 0,0.05 0,0.06 0,0.05 0,0.05 0,0.05 0,0.05 0,0.04 0,0.05 0,0.04 0,0.04 -0.01,0.04 0,0.04 0,0.04 0,0.03 0,0.04 -0.01,0.03 -0.01,0.07 0,0.06 -0.02,0.05 -0.01,0.05 -0.02,0.05 -0.02,0.04 -0.02,0.04 -0.02,0.03 -0.03,0.03 -0.03,0.03 -0.04,0.03 -0.04,0.02 -0.04,0.02 -0.03,0.01 -0.02,0.01 -0.03,0 -0.02,0.01 -0.03,0.01 -0.03,0 -0.03,0.01 -0.03,0 -0.04,0.01 -0.03,0 -0.04,0 -0.04,0.01 -0.03,0 -0.04,0 -0.05,0 -0.04,0 -0.04,0 -0.05,0.01 -0.05,0 -0.05,0 -0.05,0 -0.05,0 c -3.09,-3.19 -7.47,-3.19 -9.06,-3.19 l 0,-1.55 c 1,0 3.93,0 6.51,1.3 l 0,-25.81 c 0,-1.8 -0.14,-2.39 -4.62,-2.39 l -1.6,0 0,-1.55 c 1.75,0.16 6.08,0.16 8.07,0.16 2,0 6.32,0 8.07,-0.16 l 0,1.55 -1.59,0 c -4.48,0 -4.64,0.54 -4.64,2.39 z"
           id="path5550" /><path
           style="fill:#000000;stroke-width:0"
           inkscape:connector-curvature="0"
           d="m 637.67,422.14 -0.01,0.74 -0.01,0.75 -0.02,0.75 -0.03,0.74 -0.04,0.75 -0.06,0.74 -0.08,0.74 -0.1,0.73 -0.11,0.73 -0.14,0.73 -0.16,0.72 -0.19,0.72 -0.22,0.72 -0.24,0.7 -0.28,0.7 -0.15,0.35 -0.16,0.34 c -2.28,4.8 -6.38,5.6 -8.47,5.6 -2.98,0 -6.63,-1.3 -8.67,-5.94 -1.6,-3.44 -1.85,-7.33 -1.85,-11.31 0,-3.74 0.21,-8.22 2.25,-12 2.14,-4.03 5.79,-5.03 8.22,-5.03 l 0,1.09 c -1.93,0 -4.89,1.25 -5.78,6.03 -0.55,2.98 -0.55,7.56 -0.55,10.52 0,3.18 0,6.46 0.41,9.15 0.94,5.94 4.67,6.38 5.92,6.38 1.64,0 4.94,-0.89 5.88,-5.83 0.5,-2.78 0.5,-6.58 0.5,-9.7 0,-3.75 0,-7.13 -0.55,-10.32 -0.75,-4.73 -3.59,-6.23 -5.83,-6.23 l 0,0 0,-1.09 c 2.69,0 6.47,1.04 8.67,5.78 1.6,3.43 1.85,7.31 1.85,11.25 z"
           id="path5552" /><path
           style="fill:#000000;stroke-width:0"
           inkscape:connector-curvature="0"
           d="m 662.62,422.14 0,0.74 -0.01,0.75 -0.02,0.75 -0.03,0.74 -0.05,0.75 -0.06,0.74 -0.07,0.74 -0.1,0.73 -0.11,0.73 -0.14,0.73 -0.17,0.72 -0.18,0.72 -0.22,0.72 -0.25,0.7 -0.27,0.7 -0.16,0.35 -0.16,0.34 c -2.28,4.8 -6.37,5.6 -8.46,5.6 -2.99,0 -6.63,-1.3 -8.68,-5.94 -1.59,-3.44 -1.84,-7.33 -1.84,-11.31 0,-3.74 0.2,-8.22 2.25,-12 2.14,-4.03 5.78,-5.03 8.22,-5.03 l 0,1.09 c -1.94,0 -4.89,1.25 -5.78,6.03 -0.55,2.98 -0.55,7.56 -0.55,10.52 0,3.18 0,6.46 0.41,9.15 0.93,5.94 4.67,6.38 5.92,6.38 1.64,0 4.94,-0.89 5.87,-5.83 0.5,-2.78 0.5,-6.58 0.5,-9.7 0,-3.75 0,-7.13 -0.54,-10.32 -0.75,-4.73 -3.6,-6.23 -5.83,-6.23 l 0,0 0,-1.09 c 2.69,0 6.47,1.04 8.67,5.78 1.6,3.43 1.84,7.31 1.84,11.25 z"
           id="path5554" /><path
           style="fill:#000000;stroke-width:0"
           inkscape:connector-curvature="0"
           d="m 687.58,422.14 0,0.74 -0.01,0.75 -0.02,0.75 -0.03,0.74 -0.05,0.75 -0.06,0.74 -0.08,0.74 -0.09,0.73 -0.12,0.73 -0.14,0.73 -0.16,0.72 -0.19,0.72 -0.21,0.72 -0.25,0.7 -0.28,0.7 -0.15,0.35 -0.16,0.34 c -2.28,4.8 -6.37,5.6 -8.47,5.6 -2.98,0 -6.62,-1.3 -8.67,-5.94 -1.59,-3.44 -1.84,-7.33 -1.84,-11.31 0,-3.74 0.2,-8.22 2.25,-12 2.14,-4.03 5.78,-5.03 8.22,-5.03 l 0,1.09 c -1.94,0 -4.89,1.25 -5.79,6.03 -0.54,2.98 -0.54,7.56 -0.54,10.52 0,3.18 0,6.46 0.41,9.15 0.93,5.94 4.67,6.38 5.92,6.38 1.64,0 4.93,-0.89 5.87,-5.83 0.5,-2.78 0.5,-6.58 0.5,-9.7 0,-3.75 0,-7.13 -0.54,-10.32 -0.75,-4.73 -3.6,-6.23 -5.83,-6.23 l 0,0 0,-1.09 c 2.68,0 6.46,1.04 8.67,5.78 1.59,3.43 1.84,7.31 1.84,11.25 z"
           id="path5556" /><path
           style="fill:#000000;stroke-width:0"
           inkscape:connector-curvature="0"
           d="m 704.01,418.65 0,0.37 -0.01,0.39 -0.01,0.39 -0.01,0.41 -0.04,0.84 -0.06,0.88 -0.08,0.92 -0.11,0.95 -0.13,0.97 -0.17,1.01 -0.19,1.02 -0.23,1.03 -0.27,1.05 -0.31,1.06 -0.34,1.07 -0.4,1.07 -0.21,0.53 -0.23,0.53 -0.23,0.53 -0.25,0.53 c -2.99,6.12 -7.27,9.36 -7.77,9.36 -0.3,0 -0.5,-0.19 -0.5,-0.49 0,-0.15 0,-0.25 0.94,-1.15 4.89,-4.92 7.73,-12.85 7.73,-23.27 0,-8.51 -1.84,-17.28 -8.03,-23.56 -0.64,-0.59 -0.64,-0.7 -0.64,-0.84 0,-0.3 0.2,-0.5 0.5,-0.5 0.5,0 4.97,3.39 7.92,9.71 2.53,5.47 3.13,11 3.13,15.19 z"
           id="path5558" /></g>    </g>
    <g
       id="g5744"
       transform="matrix(0,-1.0447312,1.0447314,0,-53.352363,1030.6634)">
      <g
         word-spacing="normal"
         letter-spacing="normal"
         font-size-adjust="none"
         font-stretch="normal"
         font-weight="normal"
         font-variant="normal"
         font-style="normal"
         stroke-miterlimit="10.433"
         xml:space="preserve"
         transform="matrix(0.14445876,0,0,-0.14445876,-25.280283,112.96352)"
         id="g5746"
         style="font-style:normal;font-variant:normal;font-weight:normal;font-stretch:normal;letter-spacing:normal;word-spacing:normal;text-anchor:start;fill:none;fill-opacity:1;fill-rule:evenodd;stroke:#000000;stroke-linecap:butt;stroke-linejoin:miter;stroke-miterlimit:10.43299961;stroke-dasharray:none;stroke-dashoffset:0;stroke-opacity:1"><path
           id="path5748"
           d="m 491.39,439.03 0.01,0.04 0.01,0.04 0.01,0.04 0.02,0.04 0.01,0.04 0.01,0.05 0.01,0.04 0.01,0.05 0.01,0.04 0.01,0.05 0.01,0.05 0.01,0.05 0.01,0.05 0,0.06 0,0.05 0,0.03 0.01,0.03 c 0,0.45 -0.25,0.45 -1.24,0.45 l -21.03,0 c -1.19,0 -1.25,-0.05 -1.55,-1 l -2.73,-8.97 c -0.11,-0.25 -0.16,-0.59 -0.16,-0.7 0,-0.05 0,-0.55 0.61,-0.55 0.44,0 0.55,0.36 0.64,0.5 1.89,5.89 4.49,9.17 12.25,9.17 l 8.13,0 -27.85,-31.14 c 0,-0.04 -0.2,-0.75 -0.2,-0.89 0,-0.45 0.34,-0.45 1.25,-0.45 l 21.67,0 c 1.19,0 1.24,0.05 1.55,1 l 3.53,11 c 0.05,0.2 0.2,0.56 0.2,0.75 0,0.25 -0.2,0.55 -0.65,0.55 -0.44,0 -0.5,-0.19 -0.85,-1.24 -2.18,-6.78 -4.57,-10.37 -13.04,-10.37 l -8.53,0 z"
           inkscape:connector-curvature="0"
           style="fill:#000000;stroke-width:0" /></g>    </g>
  </g>
</svg>
