<?xml version="1.0" encoding="UTF-8" standalone="no"?>
<!-- Created with Inkscape (http://www.inkscape.org/) -->

<svg
   xmlns:dc="http://purl.org/dc/elements/1.1/"
   xmlns:cc="http://creativecommons.org/ns#"
   xmlns:rdf="http://www.w3.org/1999/02/22-rdf-syntax-ns#"
   xmlns:svg="http://www.w3.org/2000/svg"
   xmlns="http://www.w3.org/2000/svg"
   xmlns:inkscape="http://www.inkscape.org/namespaces/inkscape"
   version="1.1"
   width="804.93463"
   height="203.51595"
   id="svg2"
   xml:space="preserve"><metadata
     id="metadata8"><rdf:RDF><cc:Work
         rdf:about=""><dc:format>image/svg+xml</dc:format><dc:type
           rdf:resource="http://purl.org/dc/dcmitype/StillImage" /></cc:Work></rdf:RDF></metadata><defs
     id="defs6" /><g
     transform="matrix(1.25,0,0,-1.25,0,203.51595)"
     id="g10"><g
       id="g12"><g
         transform="matrix(0.747513,0,0,-1,0,162.81276)"
         id="g14"><path
           d="m 195.962,131.469 c 0,1.101 -1.782,1.992 -3.987,1.992 -2.205,0 -3.987,-0.891 -3.987,-1.992 0,-1.102 1.782,-1.996 3.987,-1.996 2.205,0 3.987,0.894 3.987,1.996 z"
           inkscape:connector-curvature="0"
           id="path16"
           style="fill:#ff0000;fill-opacity:1;fill-rule:evenodd;stroke:#000000;stroke-width:1.07021499;stroke-linecap:butt;stroke-linejoin:miter;stroke-miterlimit:4;stroke-opacity:1;stroke-dasharray:none" /></g><g
         transform="matrix(1,0,0,-1,0,162.81276)"
         id="g18"><path
           d="m 204.633,101.352 0,56.921"
           inkscape:connector-curvature="0"
           id="path20"
           style="fill:none;stroke:#000000;stroke-width:1.07601297;stroke-linecap:butt;stroke-linejoin:miter;stroke-miterlimit:4;stroke-opacity:1;stroke-dasharray:none" /></g><g
         transform="matrix(1,0,0,-1,0,162.81276)"
         id="g22"><path
           d="m 416.883,95.5 0,54.863"
           inkscape:connector-curvature="0"
           id="path24"
           style="fill:none;stroke:#000000;stroke-width:0.82900602;stroke-linecap:butt;stroke-linejoin:miter;stroke-miterlimit:4;stroke-opacity:1;stroke-dasharray:none" /></g><g
         transform="matrix(0.747513,0,0,-1,0,162.81276)"
         id="g26"><path
           d="m 640.133,126.031 c 0,1.102 -1.787,1.996 -3.992,1.996 -2.2,0 -3.988,-0.894 -3.988,-1.996 0,-1.101 1.788,-1.996 3.988,-1.996 2.205,0 3.992,0.895 3.992,1.996 z"
           inkscape:connector-curvature="0"
           id="path28"
           style="fill:#ff0000;fill-opacity:1;fill-rule:evenodd;stroke:#000000;stroke-width:1.07021499;stroke-linecap:butt;stroke-linejoin:miter;stroke-miterlimit:4;stroke-opacity:1;stroke-dasharray:none" /></g><g
         transform="matrix(0.747513,0,0,-1,0,162.81276)"
         id="g30"><path
           d="m 640.133,84.812 c 0,1.102 -1.787,1.993 -3.992,1.993 -2.2,0 -3.988,-0.891 -3.988,-1.993 0,-1.101 1.788,-1.996 3.988,-1.996 2.205,0 3.992,0.895 3.992,1.996 z"
           inkscape:connector-curvature="0"
           id="path32"
           style="fill:#ffff00;fill-opacity:1;fill-rule:evenodd;stroke:#000000;stroke-width:1.07021499;stroke-linecap:butt;stroke-linejoin:miter;stroke-miterlimit:4;stroke-opacity:1;stroke-dasharray:none" /></g><g
         transform="matrix(0.747513,0,0,-1,0,162.81276)"
         id="g34"><path
           d="m 637.473,43.59 c 0,1.101 -1.787,1.996 -3.987,1.996 -2.205,0 -3.992,-0.895 -3.992,-1.996 0,-1.102 1.787,-1.992 3.992,-1.992 2.2,0 3.987,0.89 3.987,1.992 z"
           inkscape:connector-curvature="0"
           id="path36"
           style="fill:#ffff00;fill-opacity:1;fill-rule:evenodd;stroke:#000000;stroke-width:1.07021499;stroke-linecap:butt;stroke-linejoin:miter;stroke-miterlimit:4;stroke-opacity:1;stroke-dasharray:none" /></g><g
         transform="matrix(0.747513,0,0,-1,0,162.81276)"
         id="g38"><path
           d="m 195.022,81.469 c 0,1.101 -1.787,1.996 -3.987,1.996 -2.206,0 -3.993,-0.895 -3.993,-1.996 0,-1.102 1.787,-1.992 3.993,-1.992 2.2,0 3.987,0.89 3.987,1.992 z"
           inkscape:connector-curvature="0"
           id="path40"
           style="fill:#ffff00;fill-opacity:1;fill-rule:evenodd;stroke:#000000;stroke-width:1.07021499;stroke-linecap:butt;stroke-linejoin:miter;stroke-miterlimit:4;stroke-opacity:1;stroke-dasharray:none" /></g><g
         transform="matrix(1,0,0,-1,0,162.81276)"
         id="g42"><path
           d="M 472.266,45.051 143.477,130.832 473.148,85.961"
           inkscape:connector-curvature="0"
           id="path44"
           style="fill:none;stroke:#000000;stroke-width:0.87041801;stroke-linecap:butt;stroke-linejoin:miter;stroke-miterlimit:4;stroke-opacity:1;stroke-dasharray:none" /></g><g
         transform="matrix(1,0,0,-1,0,162.81276)"
         id="g46"><path
           d="M 476.961,126.766 143.477,42.992"
           inkscape:connector-curvature="0"
           id="path48"
           style="fill:none;stroke:#000000;stroke-width:0.914626;stroke-linecap:butt;stroke-linejoin:miter;stroke-miterlimit:4;stroke-opacity:1;stroke-dasharray:none" /></g><g
         transform="matrix(1,0,0,-1,0,162.81276)"
         id="g50"><path
           d="M 474.816,125.988 417.902,111.941"
           inkscape:connector-curvature="0"
           id="path52"
           style="fill:none;stroke:#000000;stroke-width:0.92529601;stroke-linecap:butt;stroke-linejoin:miter;stroke-miterlimit:4;stroke-opacity:1;stroke-dasharray:none" /></g><path
         d="m 426.52,44.516 -9.817,6.637 11.777,1.304 c -2.3,-1.918 -3.085,-5.129 -1.96,-7.941 z"
         inkscape:connector-curvature="0"
         id="path54"
         style="fill:#000000;fill-opacity:1;fill-rule:evenodd;stroke:none" /><g
         transform="matrix(1,0,0,-1,0,162.81276)"
         id="g56"><path
           d="m 143.422,130.723 60.414,-15.571"
           inkscape:connector-curvature="0"
           id="path58"
           style="fill:none;stroke:#000000;stroke-width:0.86782801;stroke-linecap:butt;stroke-linejoin:miter;stroke-miterlimit:4;stroke-opacity:1;stroke-dasharray:none" /></g><path
         d="m 193.891,49.071 11.058,-1.11 -9.144,-6.316 c 1.047,2.609 0.265,5.605 -1.914,7.426 z"
         inkscape:connector-curvature="0"
         id="path60"
         style="fill:#000000;fill-opacity:1;fill-rule:evenodd;stroke:none" /><g
         transform="matrix(1,0,0,-1,0,162.81276)"
         id="g62"><path
           d="m 142.711,130.926 61.414,-8.367"
           inkscape:connector-curvature="0"
           id="path64"
           style="fill:none;stroke:#000000;stroke-width:0.92529601;stroke-linecap:butt;stroke-linejoin:miter;stroke-miterlimit:4;stroke-opacity:1;stroke-dasharray:none" /></g><path
         d="m 193.77,42.989 11.57,-2.551 -10.465,-5.555 c 1.434,2.633 0.977,5.902 -1.105,8.106 z"
         inkscape:connector-curvature="0"
         id="path66"
         style="fill:#000000;fill-opacity:1;fill-rule:evenodd;stroke:none" /><g
         transform="matrix(1,0,0,-1,0,162.81276)"
         id="g68"><path
           d="M 476.625,125.863 140.844,80.875"
           inkscape:connector-curvature="0"
           id="path70"
           style="fill:none;stroke:#000000;stroke-width:0.88732201;stroke-linecap:butt;stroke-linejoin:miter;stroke-miterlimit:4;stroke-opacity:1;stroke-dasharray:none" /></g><g
         transform="matrix(1,0,0,-1,0,162.81276)"
         id="g72"><path
           d="m 475.555,125.953 -57.762,-7.801"
           inkscape:connector-curvature="0"
           id="path74"
           style="fill:none;stroke:#000000;stroke-width:0.92529601;stroke-linecap:butt;stroke-linejoin:miter;stroke-miterlimit:4;stroke-opacity:1;stroke-dasharray:none" /></g><path
         d="m 427.047,39.27 -10.477,5.539 11.571,2.566 c -2.086,-2.156 -2.516,-5.429 -1.094,-8.105 z"
         inkscape:connector-curvature="0"
         id="path76"
         style="fill:#000000;fill-opacity:1;fill-rule:evenodd;stroke:none" /><g
         transform="matrix(0.747513,0,0,-1,0,162.81276)"
         id="g78"><path
           d="m 196.103,80.637 c 0,1.101 -1.782,1.996 -3.987,1.996 -2.205,0 -3.987,-0.895 -3.987,-1.996 0,-1.102 1.782,-1.996 3.987,-1.996 2.205,0 3.987,0.894 3.987,1.996 z"
           inkscape:connector-curvature="0"
           id="path80"
           style="fill:#ffff00;fill-opacity:1;fill-rule:evenodd;stroke:#000000;stroke-width:1.07021499;stroke-linecap:butt;stroke-linejoin:miter;stroke-miterlimit:4;stroke-opacity:1;stroke-dasharray:none" /></g><g
         transform="matrix(0.747513,0,0,-1,0,162.81276)"
         id="g82"><path
           d="m 196.103,42.957 c 0,1.102 -1.782,1.996 -3.987,1.996 -2.205,0 -3.987,-0.894 -3.987,-1.996 0,-1.102 1.782,-1.996 3.987,-1.996 2.205,0 3.987,0.894 3.987,1.996 z"
           inkscape:connector-curvature="0"
           id="path84"
           style="fill:#ffff00;fill-opacity:1;fill-rule:evenodd;stroke:#000000;stroke-width:1.07021499;stroke-linecap:butt;stroke-linejoin:miter;stroke-miterlimit:4;stroke-opacity:1;stroke-dasharray:none" /></g></g></g></svg>